<?xml version="1.0" encoding="UTF-8" standalone="no"?>
<svg width="860px" height="802px" viewBox="0 0 860 802" version="1.1" xmlns="http://www.w3.org/2000/svg" xmlns:xlink="http://www.w3.org/1999/xlink" xmlns:sketch="http://www.bohemiancoding.com/sketch/ns">
    <!-- Generator: Sketch 3.5.2 (25235) - http://www.bohemiancoding.com/sketch -->
    <title>NB_MarathonParty_Invite</title>
    <desc>Created with Sketch.</desc>
    <defs></defs>
    <g id="Page-1" stroke="none" stroke-width="1" fill="none" fill-rule="evenodd" sketch:type="MSPage">
        <g id="Artboard-1" sketch:type="MSArtboardGroup" transform="translate(-679.000000, -174.000000)">
            <g id="NB_MarathonParty_Invite" sketch:type="MSLayerGroup" transform="translate(679.000000, 174.000000)">
                <g id="White_Box" fill="#FFFFFF" sketch:type="MSShapeGroup">
                    <rect id="Rectangle-path" x="0.156" y="0.5" width="859.689" height="801.069"></rect>
                </g>
                <g id="Spirtits" transform="translate(148.000000, 480.000000)" fill="#EF2B68" sketch:type="MSShapeGroup">
                    <g id="Group">
                        <path d="M11.915,13.369 L6.082,13.369 L0.929,1.216 L7.832,1.216 L11.915,13.369 L11.915,13.369 Z M20.908,13.369 L15.075,13.369 L9.922,1.216 L16.825,1.216 L20.908,13.369 L20.908,13.369 Z" id="Shape"></path>
                        <path d="M21.245,1.216 L30.579,1.216 L35.489,24.6 L40.788,1.216 L47.837,1.216 L53.136,24.696 L58.046,1.216 L67.331,1.216 L57.803,37.191 L49.733,37.191 L44.239,13.905 L38.843,37.191 L30.53,37.191 L21.245,1.216 L21.245,1.216 Z" id="Shape"></path>
                        <path d="M68.881,1.216 L76.951,1.216 L76.951,9.286 L76.951,12.688 C78.409,10.257 81.132,9.286 84,9.286 C88.132,9.286 90.563,10.744 92.021,13.126 C93.479,15.46 93.869,18.668 93.869,22.12 L93.869,37.19 L85.799,37.19 L85.799,22.508 C85.799,21.001 85.605,19.591 84.973,18.57 C84.292,17.549 83.223,16.868 81.473,16.868 C79.237,16.868 78.07,17.889 77.535,19.056 C76.952,20.222 76.952,21.535 76.952,22.215 L76.952,37.189 L68.882,37.189 L68.882,1.216 L68.881,1.216 Z" id="Shape"></path>
                        <path d="M104.754,26.495 C105.094,29.363 107.817,31.26 110.977,31.26 C113.554,31.26 114.915,30.142 115.887,28.732 L124.152,28.732 C122.839,31.746 120.944,34.08 118.658,35.635 C116.422,37.239 113.748,38.066 110.977,38.066 C103.248,38.066 96.685,31.795 96.685,23.773 C96.685,16.238 102.616,9.287 110.832,9.287 C114.964,9.287 118.513,10.891 121.041,13.564 C124.444,17.21 125.465,21.537 124.833,26.496 L104.754,26.496 L104.754,26.495 Z M116.908,20.37 C116.714,19.105 115.06,16.092 110.88,16.092 C106.7,16.092 105.047,19.106 104.852,20.37 L116.908,20.37 L116.908,20.37 Z" id="Shape"></path>
                        <path d="M128.036,10.209 L135.62,10.209 L135.62,13.224 C136.398,11.765 137.808,9.286 142.474,9.286 L142.474,17.404 L142.182,17.404 C138.05,17.404 136.105,18.911 136.105,22.703 L136.105,37.19 L128.035,37.19 L128.035,10.209 L128.036,10.209 Z" id="Shape"></path>
                        <path d="M150.153,26.495 C150.493,29.363 153.216,31.26 156.376,31.26 C158.953,31.26 160.314,30.142 161.286,28.732 L169.551,28.732 C168.238,31.746 166.343,34.08 164.057,35.635 C161.821,37.239 159.147,38.066 156.376,38.066 C148.647,38.066 142.084,31.795 142.084,23.773 C142.084,16.238 148.015,9.287 156.231,9.287 C160.363,9.287 163.912,10.891 166.44,13.564 C169.843,17.21 170.864,21.537 170.232,26.496 L150.153,26.496 L150.153,26.495 Z M162.307,20.37 C162.113,19.105 160.459,16.092 156.279,16.092 C152.099,16.092 150.446,19.106 150.251,20.37 L162.307,20.37 L162.307,20.37 Z" id="Shape"></path>
                        <path d="M194.483,25.28 C194.483,29.461 197.06,30.19 198.226,30.19 C200.414,30.19 201.726,28.391 201.726,26.738 C201.726,24.842 200.219,24.259 194.677,21.926 C192.149,20.905 185.878,18.377 185.878,11.619 C185.878,4.376 192.441,0.535 198.469,0.535 C203.427,0.535 210.428,3.063 210.574,11.717 L201.483,11.717 C201.289,10.501 200.997,8.216 198.177,8.216 C196.573,8.216 195.017,9.334 195.017,11.036 C195.017,12.688 195.989,13.126 202.455,16.043 C209.164,19.058 210.865,22.169 210.865,26.35 C210.865,32.086 207.851,37.871 198.323,37.871 C188.892,37.871 185.1,32.329 185.343,25.28 L194.483,25.28 L194.483,25.28 Z" id="Shape"></path>
                        <path d="M213.44,10.209 L221.024,10.209 L221.024,13.175 C222.774,11.133 225.448,9.286 229.58,9.286 C239.157,9.286 242.755,17.696 242.755,23.968 C242.755,31.745 237.31,38.114 229.629,38.114 C224.768,38.114 222.483,35.78 221.51,34.76 L221.51,37.191 L221.51,46.185 L213.44,46.185 L213.44,10.209 L213.44,10.209 Z M234.685,23.676 C234.685,20.516 232.352,16.822 227.927,16.822 C225.983,16.822 224.281,17.599 223.066,18.863 C221.899,20.079 221.17,21.829 221.17,23.773 C221.17,25.669 221.899,27.371 223.115,28.586 C224.33,29.801 226.032,30.579 227.927,30.579 C232.156,30.579 234.685,27.127 234.685,23.725 L234.685,23.676 L234.685,23.676 Z" id="Shape"></path>
                        <path d="M245.861,1.216 L253.931,1.216 L253.931,7.341 L245.861,7.341 L245.861,1.216 L245.861,1.216 Z M245.861,10.209 L253.931,10.209 L253.931,37.19 L245.861,37.19 L245.861,10.209 L245.861,10.209 Z" id="Shape"></path>
                        <path d="M258.256,10.209 L265.84,10.209 L265.84,13.224 C266.618,11.765 268.028,9.286 272.695,9.286 L272.695,17.404 L272.403,17.404 C268.271,17.404 266.326,18.911 266.326,22.703 L266.326,37.19 L258.256,37.19 L258.256,10.209 L258.256,10.209 Z" id="Shape"></path>
                        <path d="M274.976,1.216 L283.047,1.216 L283.047,7.341 L274.976,7.341 L274.976,1.216 L274.976,1.216 Z M274.976,10.209 L283.047,10.209 L283.047,37.19 L274.976,37.19 L274.976,10.209 L274.976,10.209 Z" id="Shape"></path>
                        <path d="M289.024,16.335 L285.038,16.335 L285.038,10.209 L289.024,10.209 L289.024,1.216 L297.093,1.216 L297.093,10.209 L300.983,10.209 L300.983,16.335 L297.093,16.335 L297.093,37.19 L289.024,37.19 L289.024,16.335 L289.024,16.335 Z" id="Shape"></path>
                        <path d="M314.496,17.793 C314.447,17.21 314.35,15.751 311.969,15.751 C310.267,15.751 309.684,16.821 309.684,17.55 C309.684,18.766 311.677,19.592 313.816,20.224 C318.386,21.489 323.248,22.85 323.248,28.683 C323.248,34.615 318.24,38.115 312.261,38.115 C308.178,38.115 302.003,36.267 301.275,29.17 L309.296,29.17 C309.636,31.649 312.018,31.649 312.358,31.649 C313.719,31.649 315.177,30.871 315.177,29.558 C315.177,27.711 313.184,27.468 308.031,25.475 C304.531,24.357 301.614,22.072 301.614,18.425 C301.614,12.835 306.475,9.286 312.066,9.286 C315.615,9.286 321.741,10.695 322.421,17.793 L314.496,17.793 L314.496,17.793 Z" id="Shape"></path>
                        <path d="M339.722,1.216 L351.487,1.216 C357.127,1.216 360.627,2.237 362.62,3.792 C365.635,6.126 366.996,9.675 366.996,13.612 C366.996,16.383 366.218,18.522 365.197,20.127 C363.981,22.023 362.231,23.238 360.53,23.968 L367.968,37.191 L358.489,37.191 L349.106,19.836 L350.613,19.836 C352.947,19.836 354.94,19.642 356.155,18.863 C357.273,18.134 358.197,16.432 358.197,14.439 C358.197,12.543 357.273,11.037 356.058,10.258 C355.037,9.626 353.579,9.286 352.315,9.286 L348.912,9.286 L348.912,37.19 L339.724,37.19 L339.724,1.216 L339.722,1.216 Z" id="Shape"></path>
                        <path d="M394.651,37.19 L387.116,37.19 L387.116,34.322 C386.193,35.634 384.491,38.114 379.63,38.114 C370.49,38.114 369.567,30.724 369.567,27.079 L369.567,10.209 L377.637,10.209 L377.637,24.939 C377.637,27.905 378.269,30.53 381.915,30.53 C385.95,30.53 386.582,27.662 386.582,24.89 L386.582,10.208 L394.651,10.208 L394.651,37.19 L394.651,37.19 Z" id="Shape"></path>
                        <path d="M399.023,10.209 L406.558,10.209 L406.558,13.077 C407.482,11.765 409.183,9.286 413.996,9.286 C423.088,9.286 424.011,16.675 424.011,20.321 L424.011,37.19 L415.942,37.19 L415.942,22.46 C415.942,19.495 415.31,16.869 411.713,16.869 C407.727,16.869 407.095,19.738 407.095,22.509 L407.095,37.191 L399.025,37.191 L399.025,10.209 L399.023,10.209 Z" id="Shape"></path>
                        <path d="M442.186,37.19 L442.186,1.215 L451.374,1.215 L451.374,14.73 L463.139,14.73 L463.139,1.215 L472.327,1.215 L472.327,37.19 L463.139,37.19 L463.139,22.8 L451.374,22.8 L451.374,37.19 L442.186,37.19 L442.186,37.19 Z" id="Shape"></path>
                        <path d="M477.038,1.216 L485.108,1.216 L485.108,7.341 L477.038,7.341 L477.038,1.216 L477.038,1.216 Z M477.038,10.209 L485.108,10.209 L485.108,37.19 L477.038,37.19 L477.038,10.209 L477.038,10.209 Z" id="Shape"></path>
                        <path d="M517.435,33.934 C517.435,37.968 517.143,40.545 515.831,42.83 C513.741,46.232 508.831,49.198 502.171,49.198 C492.788,49.198 489.239,43.558 488.704,39.719 L498.038,39.719 C498.622,41.031 499.691,41.712 500.615,42.052 C501.587,42.393 502.511,42.393 502.754,42.393 C505.816,42.393 509.317,40.497 509.317,35.83 L509.317,34.226 C508.393,35.782 506.059,38.067 501.83,38.067 C494.489,38.067 488.219,32.525 488.219,23.872 C488.219,14.636 494.83,9.336 501.83,9.336 C504.845,9.336 507.809,10.406 509.365,12.739 L509.365,10.211 L517.435,10.211 L517.435,33.934 L517.435,33.934 Z M496.287,23.627 C496.287,27.905 499.398,30.53 502.753,30.53 C504.746,30.53 506.302,29.849 507.469,28.682 C508.587,27.516 509.268,25.911 509.365,24.015 C509.365,22.022 508.782,20.223 507.664,18.959 C506.595,17.647 504.941,16.868 502.803,16.868 C499.351,16.868 496.288,19.639 496.288,23.577 L496.288,23.627 L496.287,23.627 Z" id="Shape"></path>
                        <path d="M521.709,1.216 L529.779,1.216 L529.779,9.286 L529.779,12.688 C531.237,10.257 533.96,9.286 536.828,9.286 C540.96,9.286 543.39,10.744 544.849,13.126 C546.307,15.46 546.696,18.668 546.696,22.12 L546.696,37.19 L538.627,37.19 L538.627,22.508 C538.627,21.001 538.433,19.591 537.8,18.57 C537.12,17.549 536.05,16.868 534.3,16.868 C532.064,16.868 530.898,17.889 530.362,19.056 C529.779,20.222 529.779,21.535 529.779,22.215 L529.779,37.189 L521.709,37.189 L521.709,1.216 L521.709,1.216 Z" id="Shape"></path>
                        <path d="M553.158,1.216 L560.061,1.216 L554.908,13.369 L549.074,13.369 L553.158,1.216 L553.158,1.216 Z M562.152,1.216 L569.054,1.216 L563.902,13.369 L558.068,13.369 L562.152,1.216 L562.152,1.216 Z" id="Shape"></path>
                    </g>
                </g>
                <g id="Location" transform="translate(183.000000, 634.000000)" fill="#000000" sketch:type="MSShapeGroup">
                    <g id="Group">
                        <path d="M148.421,16.195 C148.421,18.775 150.011,19.225 150.731,19.225 C152.081,19.225 152.891,18.115 152.891,17.094 C152.891,15.924 151.961,15.565 148.541,14.124 C146.981,13.494 143.111,11.935 143.111,7.765 C143.111,3.295 147.161,0.925 150.881,0.925 C153.941,0.925 158.261,2.485 158.351,7.824 L152.741,7.824 C152.621,7.074 152.441,5.665 150.701,5.665 C149.711,5.665 148.751,6.354 148.751,7.404 C148.751,8.425 149.351,8.694 153.341,10.494 C157.481,12.354 158.531,14.274 158.531,16.854 C158.531,20.394 156.671,23.963 150.791,23.963 C144.971,23.963 142.631,20.543 142.781,16.193 L148.421,16.193 L148.421,16.195 Z" id="Shape"></path>
                        <path d="M159.342,15.174 C159.342,11.124 162.252,6.355 168.312,6.355 C174.372,6.355 177.282,11.125 177.282,15.205 C177.282,19.285 174.372,24.055 168.312,24.055 C162.252,24.055 159.342,19.285 159.342,15.205 L159.342,15.174 L159.342,15.174 Z M164.321,15.235 C164.321,17.634 166.151,19.405 168.311,19.405 C170.471,19.405 172.301,17.634 172.301,15.205 C172.301,12.776 170.471,11.006 168.311,11.006 C166.151,11.006 164.321,12.776 164.321,15.205 L164.321,15.235 L164.321,15.235 Z" id="Shape"></path>
                        <path d="M179.201,1.345 L184.181,1.345 L184.181,23.544 L179.201,23.544 L179.201,1.345 L179.201,1.345 Z" id="Shape"></path>
                        <path d="M204.37,23.544 L199.391,23.544 L199.391,21.744 C198.491,23.364 196.421,24.114 194.471,24.114 C189.191,24.114 186.101,19.973 186.101,15.204 C186.101,9.744 190.031,6.324 194.471,6.324 C197.201,6.324 198.731,7.644 199.391,8.664 L199.391,6.894 L204.37,6.894 L204.37,23.544 L204.37,23.544 Z M191.081,15.294 C191.081,16.824 192.221,19.464 195.221,19.464 C196.991,19.464 198.071,18.624 198.701,17.605 C199.121,16.945 199.331,16.225 199.391,15.475 C199.451,14.725 199.301,13.975 198.971,13.285 C198.431,12.145 197.291,10.975 195.191,10.975 C192.341,10.975 191.082,13.374 191.082,15.265 L191.082,15.294 L191.081,15.294 Z" id="Shape"></path>
                        <path d="M214.181,11.575 C214.151,11.216 214.091,10.315 212.621,10.315 C211.571,10.315 211.211,10.975 211.211,11.425 C211.211,12.175 212.441,12.685 213.761,13.074 C216.581,13.854 219.581,14.694 219.581,18.294 C219.581,21.954 216.491,24.114 212.801,24.114 C210.281,24.114 206.471,22.973 206.021,18.593 L210.971,18.593 C211.181,20.123 212.651,20.123 212.861,20.123 C213.701,20.123 214.601,19.644 214.601,18.833 C214.601,17.693 213.371,17.543 210.191,16.313 C208.031,15.623 206.232,14.212 206.232,11.963 C206.232,8.513 209.232,6.322 212.682,6.322 C214.872,6.322 218.652,7.192 219.072,11.572 L214.181,11.572 L214.181,11.575 Z" id="Shape"></path>
                        <path d="M229.75,1.345 L235.42,1.345 L235.42,23.544 L229.75,23.544 L229.75,1.345 L229.75,1.345 Z" id="Shape"></path>
                        <path d="M238.3,6.895 L242.98,6.895 L242.98,8.755 C243.46,7.855 244.33,6.324 247.21,6.324 L247.21,11.334 L247.03,11.334 C244.48,11.334 243.28,12.265 243.28,14.605 L243.28,23.544 L238.3,23.544 L238.3,6.895 L238.3,6.895 Z" id="Shape"></path>
                        <path d="M248.62,1.345 L253.599,1.345 L253.599,5.125 L248.62,5.125 L248.62,1.345 L248.62,1.345 Z M248.62,6.895 L253.599,6.895 L253.599,23.544 L248.62,23.544 L248.62,6.895 L248.62,6.895 Z" id="Shape"></path>
                        <path d="M263.379,11.575 C263.349,11.216 263.289,10.315 261.818,10.315 C260.768,10.315 260.409,10.975 260.409,11.425 C260.409,12.175 261.638,12.685 262.959,13.074 C265.778,13.854 268.778,14.694 268.778,18.294 C268.778,21.954 265.688,24.114 261.999,24.114 C259.478,24.114 255.669,22.973 255.219,18.593 L260.169,18.593 C260.379,20.123 261.849,20.123 262.059,20.123 C262.899,20.123 263.799,19.644 263.799,18.833 C263.799,17.693 262.569,17.543 259.389,16.313 C257.229,15.623 255.429,14.212 255.429,11.963 C255.429,8.513 258.429,6.322 261.879,6.322 C264.068,6.322 267.849,7.192 268.269,11.572 L263.379,11.572 L263.379,11.575 Z" id="Shape"></path>
                        <path d="M270.369,1.345 L275.348,1.345 L275.348,6.324 L275.348,8.425 C276.248,6.925 277.928,6.324 279.699,6.324 C282.249,6.324 283.749,7.224 284.648,8.694 C285.548,10.134 285.789,12.114 285.789,14.244 L285.789,23.544 L280.809,23.544 L280.809,14.484 C280.809,13.554 280.689,12.684 280.299,12.054 C279.879,11.424 279.219,11.004 278.139,11.004 C276.759,11.004 276.039,11.634 275.709,12.354 C275.349,13.074 275.349,13.884 275.349,14.304 L275.349,23.543 L270.37,23.543 L270.37,1.345 L270.369,1.345 Z" id="Shape"></path>
                        <path d="M304.268,1.345 C308.378,1.345 309.908,1.975 311.108,2.965 C312.848,4.404 313.717,6.595 313.717,8.845 C313.717,11.095 312.787,13.465 311.377,14.664 C309.848,15.954 308.348,16.584 304.898,16.584 L302.678,16.584 L302.678,23.544 L297.008,23.544 L297.008,1.345 L304.268,1.345 L304.268,1.345 Z M302.678,11.605 L304.748,11.605 C305.288,11.605 306.187,11.605 306.937,11.275 C307.687,10.945 308.287,10.255 308.287,8.935 C308.287,7.615 307.657,6.985 306.878,6.655 C306.098,6.325 305.168,6.325 304.538,6.325 L302.678,6.325 L302.678,11.605 L302.678,11.605 Z" id="Shape"></path>
                        <path d="M330.398,23.544 L325.748,23.544 L325.748,21.774 C325.179,22.584 324.128,24.114 321.128,24.114 C315.488,24.114 314.919,19.553 314.919,17.304 L314.919,6.894 L319.898,6.894 L319.898,15.984 C319.898,17.814 320.288,19.434 322.538,19.434 C325.028,19.434 325.418,17.663 325.418,15.954 L325.418,6.894 L330.398,6.894 L330.398,23.544 L330.398,23.544 Z" id="Shape"></path>
                        <path d="M333.097,1.345 L338.076,1.345 L338.076,6.955 L338.076,8.215 C339.847,6.324 342.217,6.324 342.906,6.324 C346.386,6.324 351.095,8.814 351.095,15.114 C351.095,21.114 346.925,24.114 342.696,24.114 C340.356,24.114 338.556,22.973 337.866,21.774 L337.866,23.544 L333.096,23.544 L333.096,1.345 L333.097,1.345 Z M346.117,15.174 C346.117,13.044 344.497,10.975 342.037,10.975 C339.397,10.975 337.897,13.105 337.897,15.174 C337.897,17.485 339.458,19.464 341.947,19.464 C344.497,19.464 346.117,17.395 346.117,15.204 L346.117,15.174 L346.117,15.174 Z" id="Shape"></path>
                        <path d="M6.484,36.345 C9.604,36.345 11.074,36.705 12.454,37.755 C13.924,38.895 14.824,40.965 14.824,43.034 C14.824,45.135 13.894,47.264 12.544,48.314 C11.074,49.454 9.574,49.814 6.694,49.814 L3.124,49.814 L3.124,58.543 L0.634,58.543 L0.634,36.344 L6.484,36.344 L6.484,36.345 Z M3.125,47.624 L6.665,47.624 C8.525,47.624 9.665,47.414 10.775,46.694 C11.735,46.064 12.425,44.654 12.425,43.094 C12.425,41.504 11.735,40.094 10.745,39.464 C9.635,38.744 8.495,38.534 6.605,38.534 L3.126,38.534 L3.126,47.624 L3.125,47.624 Z" id="Shape"></path>
                        <path d="M16.444,36.345 L18.664,36.345 L18.664,58.544 L16.444,58.544 L16.444,36.345 L16.444,36.345 Z" id="Shape"></path>
                        <path d="M23.044,51.105 C23.164,55.155 26.614,57.104 29.344,57.075 C31.834,57.075 33.844,55.845 34.894,53.745 L37.204,53.745 C36.454,55.485 35.314,56.805 33.934,57.675 C32.584,58.545 30.994,58.995 29.344,58.995 C23.734,58.995 20.824,54.525 20.824,50.505 C20.824,45.766 24.484,41.956 29.313,41.956 C31.593,41.956 33.693,42.766 35.223,44.235 C37.083,46.035 37.983,48.525 37.743,51.105 L23.044,51.105 L23.044,51.105 Z M35.553,49.334 C35.403,46.515 32.673,43.755 29.344,43.845 C25.864,43.845 23.284,46.395 23.074,49.334 L35.553,49.334 L35.553,49.334 Z" id="Shape"></path>
                        <path d="M56.193,58.544 L53.973,58.544 L53.973,55.214 C52.713,57.644 50.253,58.994 47.373,58.994 C42.123,58.994 39.003,54.914 39.003,50.474 C39.003,45.734 42.453,41.954 47.373,41.954 C50.823,41.954 53.193,43.964 53.973,45.794 L53.973,42.403 L56.193,42.403 L56.193,58.544 L56.193,58.544 Z M41.193,50.504 C41.223,53.414 43.233,56.924 47.672,56.924 C50.522,56.924 52.622,55.275 53.492,52.994 C53.852,52.214 54.032,51.314 54.032,50.444 C54.062,49.544 53.882,48.644 53.522,47.864 C52.622,45.644 50.462,43.994 47.612,43.994 C43.892,43.994 41.192,46.874 41.192,50.474 L41.192,50.504 L41.193,50.504 Z" id="Shape"></path>
                        <path d="M66.873,46.455 C66.873,44.745 65.733,43.785 64.113,43.785 C62.343,43.785 61.263,44.985 61.323,46.395 C61.383,47.925 62.553,48.555 64.503,49.124 C66.813,49.754 69.393,50.414 69.513,53.864 C69.633,56.834 67.233,58.994 64.173,58.994 C61.563,58.994 58.683,57.344 58.653,53.954 L60.843,53.954 C60.933,56.174 62.583,57.164 64.203,57.164 C66.063,57.164 67.353,55.784 67.323,54.134 C67.263,52.305 66.063,51.555 63.273,50.744 C60.963,50.055 59.163,49.124 59.103,46.574 C59.103,43.664 61.413,41.955 64.143,41.955 C66.393,41.955 68.913,43.184 69.062,46.454 L66.873,46.454 L66.873,46.455 Z" id="Shape"></path>
                        <path d="M73.203,51.105 C73.323,55.155 76.773,57.104 79.503,57.075 C81.993,57.075 84.003,55.845 85.053,53.745 L87.363,53.745 C86.613,55.485 85.473,56.805 84.093,57.675 C82.743,58.545 81.153,58.995 79.503,58.995 C73.893,58.995 70.983,54.525 70.983,50.505 C70.983,45.766 74.643,41.956 79.472,41.956 C81.752,41.956 83.852,42.766 85.382,44.235 C87.242,46.035 88.142,48.525 87.902,51.105 L73.203,51.105 L73.203,51.105 Z M85.712,49.334 C85.562,46.515 82.832,43.755 79.503,43.845 C76.023,43.845 73.443,46.395 73.233,49.334 L85.712,49.334 L85.712,49.334 Z" id="Shape"></path>
                        <path d="M97.953,36.345 L110.253,36.345 L110.253,38.535 L100.413,38.535 L100.413,46.244 L110.193,46.244 L110.193,48.434 L100.413,48.434 L100.413,56.354 L110.253,56.354 L110.253,58.543 L97.953,58.543 L97.953,36.345 L97.953,36.345 Z" id="Shape"></path>
                        <path d="M113.223,42.405 L115.323,42.405 C115.323,43.305 115.323,44.205 115.293,45.285 C116.223,43.185 118.413,41.895 121.293,41.956 C126.303,42.016 128.073,45.435 128.073,49.365 L128.073,58.545 L125.883,58.545 L125.883,49.816 C125.883,46.336 124.323,43.966 120.693,44.026 C117.363,44.056 115.443,46.066 115.443,49.425 L115.443,58.545 L113.223,58.545 L113.223,42.405 L113.223,42.405 Z" id="Shape"></path>
                        <path d="M132.722,44.175 L129.542,44.175 L129.542,42.404 L132.722,42.404 L132.722,36.344 L134.912,36.344 L134.912,42.404 L138.452,42.404 L138.452,44.175 L134.912,44.175 L134.912,58.544 L132.722,58.544 L132.722,44.175 L132.722,44.175 Z" id="Shape"></path>
                        <path d="M140.072,51.105 C140.192,55.155 143.642,57.104 146.372,57.075 C148.862,57.075 150.872,55.845 151.922,53.745 L154.232,53.745 C153.482,55.485 152.342,56.805 150.962,57.675 C149.612,58.545 148.022,58.995 146.372,58.995 C140.762,58.995 137.852,54.525 137.852,50.505 C137.852,45.766 141.512,41.956 146.341,41.956 C148.621,41.956 150.721,42.766 152.251,44.235 C154.111,46.035 155.011,48.525 154.771,51.105 L140.072,51.105 L140.072,51.105 Z M152.581,49.334 C152.431,46.515 149.701,43.755 146.372,43.845 C142.892,43.845 140.312,46.395 140.102,49.334 L152.581,49.334 L152.581,49.334 Z" id="Shape"></path>
                        <path d="M157.021,42.405 L159.121,42.405 L159.121,45.046 C160.291,42.646 162.391,42.016 164.281,41.956 L164.281,44.145 L164.071,44.145 C160.951,44.145 159.211,46.095 159.211,49.754 L159.211,58.544 L157.021,58.544 L157.021,42.405 L157.021,42.405 Z" id="Shape"></path>
                        <path d="M174.271,38.536 L168.811,38.536 L168.811,36.346 L182.25,36.346 L182.25,38.536 L176.76,38.536 L176.76,58.545 L174.27,58.545 L174.27,38.536 L174.271,38.536 Z" id="Shape"></path>
                        <path d="M183.512,36.345 L185.732,36.345 L185.732,42.255 L185.732,45.045 C186.722,42.915 189.212,41.895 191.492,41.955 C194.042,41.955 195.722,42.765 196.832,44.175 C197.942,45.584 198.362,47.534 198.362,49.845 L198.362,58.544 L196.172,58.544 L196.172,49.935 C196.172,48.195 195.812,46.725 195.002,45.675 C194.132,44.625 192.872,44.025 190.952,44.025 C189.182,44.025 187.862,44.655 187.022,45.615 C186.152,46.575 185.732,47.895 185.732,49.365 L185.732,58.545 L183.512,58.545 L183.512,36.345 L183.512,36.345 Z" id="Shape"></path>
                        <path d="M201.721,42.405 L203.821,42.405 L203.821,45.046 C204.991,42.646 207.091,42.016 208.981,41.956 L208.981,44.145 L208.771,44.145 C205.651,44.145 203.911,46.095 203.911,49.754 L203.911,58.544 L201.721,58.544 L201.721,42.405 L201.721,42.405 Z" id="Shape"></path>
                        <path d="M208.231,50.445 C208.231,45.945 211.591,41.956 216.781,41.956 C222.001,41.956 225.361,45.945 225.361,50.476 C225.361,55.005 222.001,58.965 216.781,58.965 C211.591,58.965 208.231,55.005 208.231,50.476 L208.231,50.445 L208.231,50.445 Z M210.421,50.504 C210.421,54.164 213.211,56.924 216.781,56.924 C220.381,56.924 223.141,54.164 223.141,50.475 C223.141,46.785 220.381,44.025 216.781,44.025 C213.211,44.025 210.421,46.785 210.421,50.475 L210.421,50.504 L210.421,50.504 Z" id="Shape"></path>
                        <path d="M242.64,58.544 L240.54,58.544 L240.54,55.664 C239.64,57.764 237.45,59.023 234.57,58.994 C229.53,58.904 227.76,55.484 227.76,51.555 L227.76,42.405 L229.95,42.405 L229.95,51.134 C229.95,54.614 231.51,56.954 235.14,56.924 C238.5,56.894 240.42,54.884 240.42,51.525 L240.42,42.405 L242.64,42.405 L242.64,58.544 L242.64,58.544 Z" id="Shape"></path>
                        <path d="M262.199,56.684 C262.199,59.745 261.21,61.694 259.8,63.044 C258.211,64.604 255.871,65.533 253.681,65.533 C249.661,65.533 246.721,63.223 245.701,60.313 L248.251,60.313 C248.641,61.003 249.211,61.784 250.171,62.443 C251.341,63.284 252.721,63.613 253.741,63.613 C256.831,63.613 259.98,61.214 259.98,57.194 L259.98,55.124 C258.84,57.404 256.591,58.994 253.471,58.994 C248.431,58.994 245.041,55.154 245.041,50.504 C245.041,45.675 248.551,41.955 253.471,41.955 C256.651,41.955 259.11,43.755 260.01,45.734 L260.01,42.404 L262.199,42.404 L262.199,56.684 L262.199,56.684 Z M247.26,50.475 C247.26,53.745 249.57,56.924 253.74,56.924 C255.57,56.924 257.13,56.235 258.27,55.065 C259.379,53.895 260.04,52.275 260.069,50.504 C260.069,49.154 259.62,47.565 258.6,46.275 C257.61,44.985 255.99,44.025 253.681,44.025 C250.141,44.025 247.261,46.665 247.261,50.445 L247.261,50.475 L247.26,50.475 Z" id="Shape"></path>
                        <path d="M265.59,36.345 L267.81,36.345 L267.81,42.255 L267.81,45.045 C268.8,42.915 271.289,41.895 273.57,41.955 C276.12,41.955 277.799,42.765 278.91,44.175 C280.019,45.584 280.44,47.534 280.44,49.845 L280.44,58.544 L278.25,58.544 L278.25,49.935 C278.25,48.195 277.89,46.725 277.08,45.675 C276.21,44.625 274.95,44.025 273.03,44.025 C271.26,44.025 269.94,44.655 269.1,45.615 C268.23,46.575 267.81,47.895 267.81,49.365 L267.81,58.545 L265.59,58.545 L265.59,36.345 L265.59,36.345 Z" id="Shape"></path>
                        <path d="M292.799,44.175 L289.619,44.175 L289.619,42.404 L292.799,42.404 L292.799,36.344 L294.988,36.344 L294.988,42.404 L298.528,42.404 L298.528,44.175 L294.988,44.175 L294.988,58.544 L292.799,58.544 L292.799,44.175 L292.799,44.175 Z" id="Shape"></path>
                        <path d="M300.06,36.345 L302.28,36.345 L302.28,42.255 L302.28,45.045 C303.27,42.915 305.759,41.895 308.04,41.955 C310.59,41.955 312.269,42.765 313.38,44.175 C314.489,45.584 314.91,47.534 314.91,49.845 L314.91,58.544 L312.72,58.544 L312.72,49.935 C312.72,48.195 312.36,46.725 311.55,45.675 C310.68,44.625 309.42,44.025 307.5,44.025 C305.73,44.025 304.41,44.655 303.57,45.615 C302.7,46.575 302.28,47.895 302.28,49.365 L302.28,58.545 L300.06,58.545 L300.06,36.345 L300.06,36.345 Z" id="Shape"></path>
                        <path d="M319.258,51.105 C319.378,55.155 322.828,57.104 325.558,57.075 C328.048,57.075 330.058,55.845 331.108,53.745 L333.419,53.745 C332.669,55.485 331.528,56.805 330.148,57.675 C328.798,58.545 327.209,58.995 325.558,58.995 C319.949,58.995 317.038,54.525 317.038,50.505 C317.038,45.766 320.698,41.956 325.528,41.956 C327.807,41.956 329.908,42.766 331.437,44.235 C333.297,46.035 334.197,48.525 333.958,51.105 L319.258,51.105 L319.258,51.105 Z M331.768,49.334 C331.619,46.515 328.888,43.755 325.558,43.845 C322.079,43.845 319.498,46.395 319.288,49.334 L331.768,49.334 L331.768,49.334 Z" id="Shape"></path>
                        <path d="M344.039,36.345 L346.529,36.345 L346.529,56.355 L354.988,56.355 L354.988,58.544 L344.039,58.544 L344.039,36.345 L344.039,36.345 Z" id="Shape"></path>
                        <path d="M357.358,51.105 C357.478,55.155 360.928,57.104 363.658,57.075 C366.148,57.075 368.158,55.845 369.208,53.745 L371.519,53.745 C370.769,55.485 369.628,56.805 368.248,57.675 C366.898,58.545 365.309,58.995 363.658,58.995 C358.049,58.995 355.138,54.525 355.138,50.505 C355.138,45.766 358.798,41.956 363.628,41.956 C365.907,41.956 368.008,42.766 369.537,44.235 C371.397,46.035 372.297,48.525 372.058,51.105 L357.358,51.105 L357.358,51.105 Z M369.868,49.334 C369.719,46.515 366.988,43.755 363.658,43.845 C360.179,43.845 357.598,46.395 357.388,49.334 L369.868,49.334 L369.868,49.334 Z" id="Shape"></path>
                        <path d="M374.308,42.405 L376.408,42.405 C376.408,43.305 376.408,44.205 376.378,45.285 C377.309,43.185 379.498,41.895 382.378,41.956 C387.388,42.016 389.158,45.435 389.158,49.365 L389.158,58.545 L386.968,58.545 L386.968,49.816 C386.968,46.336 385.408,43.966 381.779,44.026 C378.449,44.056 376.529,46.066 376.529,49.425 L376.529,58.545 L374.309,58.545 L374.309,42.405 L374.308,42.405 Z" id="Shape"></path>
                        <path d="M391.797,50.445 C391.797,45.945 395.157,41.956 400.347,41.956 C405.567,41.956 408.926,45.945 408.926,50.476 C408.926,55.005 405.567,58.965 400.347,58.965 C395.158,58.965 391.797,55.005 391.797,50.476 L391.797,50.445 L391.797,50.445 Z M393.987,50.504 C393.987,54.164 396.777,56.924 400.347,56.924 C403.947,56.924 406.706,54.164 406.706,50.475 C406.706,46.785 403.946,44.025 400.347,44.025 C396.777,44.025 393.987,46.785 393.987,50.475 L393.987,50.504 L393.987,50.504 Z" id="Shape"></path>
                        <path d="M414.237,50.265 L408.838,42.405 L411.537,42.405 L415.587,48.615 L419.667,42.405 L422.308,42.405 L416.938,50.265 L422.608,58.544 L419.908,58.544 L415.588,52.034 L411.299,58.544 L408.599,58.544 L414.237,50.265 L414.237,50.265 Z" id="Shape"></path>
                        <path d="M431.876,58.544 L431.876,36.345 L434.336,36.345 L434.336,46.215 L445.046,46.215 L445.046,36.345 L447.535,36.345 L447.535,58.544 L445.046,58.544 L445.046,48.404 L434.336,48.404 L434.336,58.544 L431.876,58.544 L431.876,58.544 Z" id="Shape"></path>
                        <path d="M450.027,50.445 C450.027,45.945 453.387,41.956 458.577,41.956 C463.797,41.956 467.156,45.945 467.156,50.476 C467.156,55.005 463.797,58.965 458.577,58.965 C453.388,58.965 450.027,55.005 450.027,50.476 L450.027,50.445 L450.027,50.445 Z M452.217,50.504 C452.217,54.164 455.006,56.924 458.576,56.924 C462.176,56.924 464.935,54.164 464.935,50.475 C464.935,46.785 462.175,44.025 458.576,44.025 C455.006,44.025 452.217,46.785 452.217,50.475 L452.217,50.504 L452.217,50.504 Z" id="Shape"></path>
                        <path d="M470.846,44.175 L467.666,44.175 L467.666,42.404 L470.846,42.404 L470.846,36.344 L473.035,36.344 L473.035,42.404 L476.575,42.404 L476.575,44.175 L473.035,44.175 L473.035,58.544 L470.846,58.544 L470.846,44.175 L470.846,44.175 Z" id="Shape"></path>
                        <path d="M478.196,51.105 C478.316,55.155 481.766,57.104 484.496,57.075 C486.986,57.075 488.996,55.845 490.046,53.745 L492.357,53.745 C491.607,55.485 490.466,56.805 489.086,57.675 C487.736,58.545 486.147,58.995 484.496,58.995 C478.887,58.995 475.976,54.525 475.976,50.505 C475.976,45.766 479.636,41.956 484.466,41.956 C486.745,41.956 488.846,42.766 490.375,44.235 C492.235,46.035 493.135,48.525 492.896,51.105 L478.196,51.105 L478.196,51.105 Z M490.706,49.334 C490.557,46.515 487.826,43.755 484.496,43.845 C481.017,43.845 478.436,46.395 478.226,49.334 L490.706,49.334 L490.706,49.334 Z" id="Shape"></path>
                        <path d="M495.146,36.345 L497.366,36.345 L497.366,58.544 L495.146,58.544 L495.146,36.345 L495.146,36.345 Z" id="Shape"></path>
                        <path d="M33.253,71.345 L33.253,73.325 L24.043,93.544 L21.373,93.544 L30.673,73.475 L20.593,73.475 L20.593,71.345 L33.253,71.345 L33.253,71.345 Z" id="Shape"></path>
                        <path d="M42.313,73.475 L37.843,73.475 L37.843,71.345 L44.802,71.345 L44.802,93.544 L42.312,93.544 L42.312,73.475 L42.313,73.475 Z" id="Shape"></path>
                        <path d="M52.063,78.635 C52.063,72.215 57.403,70.955 59.563,70.955 C63.133,70.955 67.092,73.415 67.092,78.454 L67.092,86.434 C67.092,92.284 62.113,93.933 59.653,93.933 C56.833,93.933 52.063,92.133 52.063,86.434 L52.063,78.635 L52.063,78.635 Z M54.553,86.495 C54.553,89.615 56.743,91.745 59.593,91.745 C61.903,91.745 64.633,89.945 64.633,86.495 L64.633,78.395 C64.633,76.206 63.313,73.145 59.533,73.145 C56.623,73.145 54.553,75.305 54.553,78.515 L54.553,86.495 L54.553,86.495 Z" id="Shape"></path>
                        <path d="M77.292,71.345 L83.142,71.345 C85.152,71.345 86.532,71.705 87.522,72.395 C89.322,73.416 89.922,75.275 89.922,77.015 C89.922,79.625 88.452,80.945 86.952,81.725 C90.942,82.954 91.212,86.344 91.212,87.365 C91.182,89.764 90.072,91.565 88.182,92.554 C86.862,93.365 85.602,93.544 83.412,93.544 L77.292,93.544 L77.292,71.345 L77.292,71.345 Z M79.752,80.945 L83.112,80.945 C84.132,80.945 85.032,80.825 85.722,80.495 C87.132,79.716 87.522,78.546 87.522,77.195 C87.522,75.575 86.652,74.466 85.722,74.046 C85.152,73.746 84.402,73.566 82.962,73.536 L79.752,73.536 L79.752,80.945 L79.752,80.945 Z M79.752,91.355 L83.772,91.355 C84.672,91.355 85.662,91.264 86.472,90.934 C87.792,90.365 88.782,89.225 88.812,87.245 C88.812,85.445 87.852,84.125 86.442,83.495 C85.452,83.075 84.702,83.045 83.322,83.045 L79.752,83.045 L79.752,91.355 L79.752,91.355 Z" id="Shape"></path>
                        <path d="M92.592,85.445 C92.592,80.945 95.952,76.956 101.142,76.956 C106.362,76.956 109.722,80.945 109.722,85.476 C109.722,90.005 106.362,93.965 101.142,93.965 C95.952,93.965 92.592,90.005 92.592,85.476 L92.592,85.445 L92.592,85.445 Z M94.782,85.504 C94.782,89.164 97.572,91.924 101.142,91.924 C104.742,91.924 107.502,89.164 107.502,85.475 C107.502,81.785 104.742,79.025 101.142,79.025 C97.572,79.025 94.782,81.785 94.782,85.475 L94.782,85.504 L94.782,85.504 Z" id="Shape"></path>
                        <path d="M115.782,93.245 L109.542,77.405 L111.912,77.405 L116.982,90.455 L122.202,77.405 L124.632,77.405 L115.422,99.665 L113.022,99.665 L115.782,93.245 L115.782,93.245 Z" id="Shape"></path>
                        <path d="M125.922,71.345 L128.142,71.345 L128.142,93.544 L125.922,93.544 L125.922,71.345 L125.922,71.345 Z" id="Shape"></path>
                        <path d="M138.792,81.455 C138.792,79.745 137.652,78.785 136.032,78.785 C134.262,78.785 133.182,79.985 133.242,81.395 C133.302,82.925 134.472,83.555 136.422,84.124 C138.732,84.754 141.312,85.414 141.432,88.864 C141.552,91.834 139.152,93.994 136.092,93.994 C133.482,93.994 130.602,92.344 130.572,88.954 L132.761,88.954 C132.851,91.174 134.501,92.164 136.121,92.164 C137.981,92.164 139.271,90.784 139.241,89.134 C139.181,87.305 137.981,86.555 135.191,85.744 C132.881,85.055 131.081,84.124 131.021,81.574 C131.021,78.664 133.331,76.955 136.061,76.955 C138.311,76.955 140.831,78.184 140.98,81.454 L138.792,81.454 L138.792,81.455 Z" id="Shape"></path>
                        <path d="M145.392,79.175 L142.212,79.175 L142.212,77.404 L145.392,77.404 L145.392,71.344 L147.582,71.344 L147.582,77.404 L151.122,77.404 L151.122,79.175 L147.582,79.175 L147.582,93.544 L145.392,93.544 L145.392,79.175 L145.392,79.175 Z" id="Shape"></path>
                        <path d="M150.762,85.445 C150.762,80.945 154.122,76.956 159.312,76.956 C164.532,76.956 167.892,80.945 167.892,85.476 C167.892,90.005 164.532,93.965 159.312,93.965 C154.122,93.965 150.762,90.005 150.762,85.476 L150.762,85.445 L150.762,85.445 Z M152.952,85.504 C152.952,89.164 155.742,91.924 159.312,91.924 C162.912,91.924 165.671,89.164 165.671,85.475 C165.671,81.785 162.911,79.025 159.312,79.025 C155.742,79.025 152.952,81.785 152.952,85.475 L152.952,85.504 L152.952,85.504 Z" id="Shape"></path>
                        <path d="M170.321,77.405 L172.421,77.405 C172.421,78.305 172.421,79.205 172.391,80.285 C173.321,78.185 175.511,76.895 178.391,76.956 C183.401,77.016 185.171,80.435 185.171,84.365 L185.171,93.545 L182.981,93.545 L182.981,84.816 C182.981,81.336 181.421,78.966 177.791,79.026 C174.461,79.056 172.541,81.066 172.541,84.425 L172.541,93.545 L170.321,93.545 L170.321,77.405 L170.321,77.405 Z" id="Shape"></path>
                        <path d="M197.771,87.365 C198.131,91.054 200.831,91.835 202.211,91.835 C204.521,91.835 206.65,90.065 206.65,87.606 C206.65,84.486 203.981,83.795 201.4,82.956 C199.6,82.416 195.73,81.276 195.73,77.076 C195.67,73.146 198.94,70.957 202.33,70.957 C205.09,70.957 208.27,72.486 208.63,76.686 L206.17,76.686 C205.9,75.247 205.18,73.056 202.24,73.056 C200.02,73.056 198.19,74.556 198.19,76.866 C198.16,79.566 200.35,80.226 203.71,81.366 C205.81,82.177 209.109,83.346 209.109,87.426 C209.109,91.056 206.379,93.936 202.239,93.936 C198.519,93.936 195.429,91.596 195.28,87.367 L197.771,87.367 L197.771,87.365 Z" id="Shape"></path>
                        <path d="M212.741,79.175 L209.561,79.175 L209.561,77.404 L212.741,77.404 L212.741,71.344 L214.931,71.344 L214.931,77.404 L218.471,77.404 L218.471,79.175 L214.931,79.175 L214.931,93.544 L212.741,93.544 L212.741,79.175 L212.741,79.175 Z" id="Shape"></path>
                        <path d="M223.36,93.544 L221.02,93.544 L221.02,90.244 L223.36,90.244 L223.36,93.544 L223.36,93.544 Z" id="Shape"></path>
                        <path d="M232.06,71.345 L237.91,71.345 C239.92,71.345 241.3,71.705 242.29,72.395 C244.09,73.416 244.69,75.275 244.69,77.015 C244.69,79.625 243.22,80.945 241.72,81.725 C245.71,82.954 245.98,86.344 245.98,87.365 C245.95,89.764 244.84,91.565 242.95,92.554 C241.63,93.365 240.37,93.544 238.18,93.544 L232.06,93.544 L232.06,71.345 L232.06,71.345 Z M234.52,80.945 L237.88,80.945 C238.9,80.945 239.8,80.825 240.49,80.495 C241.9,79.716 242.29,78.546 242.29,77.195 C242.29,75.575 241.42,74.466 240.49,74.046 C239.92,73.746 239.17,73.566 237.73,73.536 L234.52,73.536 L234.52,80.945 L234.52,80.945 Z M234.52,91.355 L238.54,91.355 C239.44,91.355 240.43,91.264 241.24,90.934 C242.56,90.365 243.55,89.225 243.58,87.245 C243.58,85.445 242.62,84.125 241.21,83.495 C240.22,83.075 239.47,83.045 238.09,83.045 L234.52,83.045 L234.52,91.355 L234.52,91.355 Z" id="Shape"></path>
                        <path d="M247.36,85.445 C247.36,80.945 250.719,76.956 255.909,76.956 C261.129,76.956 264.489,80.945 264.489,85.476 C264.489,90.005 261.129,93.965 255.909,93.965 C250.72,93.965 247.36,90.005 247.36,85.476 L247.36,85.445 L247.36,85.445 Z M249.549,85.504 C249.549,89.164 252.339,91.924 255.908,91.924 C259.509,91.924 262.268,89.164 262.268,85.475 C262.268,81.785 259.508,79.025 255.908,79.025 C252.339,79.025 249.549,81.785 249.549,85.475 L249.549,85.504 L249.549,85.504 Z" id="Shape"></path>
                        <path d="M274.179,81.455 C274.179,79.745 273.038,78.785 271.419,78.785 C269.648,78.785 268.568,79.985 268.629,81.395 C268.689,82.925 269.858,83.555 271.809,84.124 C274.119,84.754 276.699,85.414 276.819,88.864 C276.939,91.834 274.539,93.994 271.479,93.994 C268.869,93.994 265.989,92.344 265.959,88.954 L268.148,88.954 C268.238,91.174 269.888,92.164 271.508,92.164 C273.367,92.164 274.657,90.784 274.627,89.134 C274.567,87.305 273.367,86.555 270.577,85.744 C268.267,85.055 266.468,84.124 266.408,81.574 C266.408,78.664 268.718,76.955 271.447,76.955 C273.697,76.955 276.218,78.184 276.367,81.454 L274.179,81.454 L274.179,81.455 Z" id="Shape"></path>
                        <path d="M280.779,79.175 L277.599,79.175 L277.599,77.404 L280.779,77.404 L280.779,71.344 L282.968,71.344 L282.968,77.404 L286.508,77.404 L286.508,79.175 L282.968,79.175 L282.968,93.544 L280.779,93.544 L280.779,79.175 L280.779,79.175 Z" id="Shape"></path>
                        <path d="M286.149,85.445 C286.149,80.945 289.509,76.956 294.699,76.956 C299.919,76.956 303.278,80.945 303.278,85.476 C303.278,90.005 299.919,93.965 294.699,93.965 C289.51,93.965 286.149,90.005 286.149,85.476 L286.149,85.445 L286.149,85.445 Z M288.338,85.504 C288.338,89.164 291.128,91.924 294.698,91.924 C298.298,91.924 301.057,89.164 301.057,85.475 C301.057,81.785 298.297,79.025 294.698,79.025 C291.128,79.025 288.338,81.785 288.338,85.475 L288.338,85.504 L288.338,85.504 Z" id="Shape"></path>
                        <path d="M305.708,77.405 L307.808,77.405 C307.808,78.305 307.808,79.205 307.778,80.285 C308.709,78.185 310.898,76.895 313.778,76.956 C318.788,77.016 320.558,80.435 320.558,84.365 L320.558,93.545 L318.368,93.545 L318.368,84.816 C318.368,81.336 316.808,78.966 313.179,79.026 C309.849,79.056 307.929,81.066 307.929,84.425 L307.929,93.545 L305.709,93.545 L305.709,77.405 L305.708,77.405 Z" id="Shape"></path>
                        <path d="M325.088,95.794 L323.078,95.794 L324.968,90.214 L327.338,90.214 L325.088,95.794 L325.088,95.794 Z" id="Shape"></path>
                        <path d="M336.007,93.544 L336.007,71.345 L339.487,71.345 L347.707,89.974 L355.896,71.345 L359.375,71.345 L359.375,93.544 L357.035,93.544 L357.095,73.805 L348.486,93.544 L346.896,93.544 L338.256,73.805 L338.317,93.544 L336.007,93.544 L336.007,93.544 Z" id="Shape"></path>
                        <path d="M363.608,93.544 L360.938,93.544 L370.208,71.345 L372.607,71.345 L381.787,93.544 L379.088,93.544 L376.508,87.305 L366.158,87.305 L363.608,93.544 L363.608,93.544 Z M371.317,74.135 L366.908,85.265 L375.758,85.265 L371.317,74.135 L371.317,74.135 Z" id="Shape"></path>
                        <path d="M386.647,93.544 L384.307,93.544 L384.307,90.244 L386.647,90.244 L386.647,93.544 L386.647,93.544 Z" id="Shape"></path>
                        <path d="M394.238,78.635 C394.238,72.215 399.578,70.955 401.737,70.955 C405.307,70.955 409.267,73.415 409.267,78.454 L409.267,86.434 C409.267,92.284 404.287,93.933 401.827,93.933 C399.008,93.933 394.238,92.133 394.238,86.434 L394.238,78.635 L394.238,78.635 Z M396.727,86.495 C396.727,89.615 398.917,91.745 401.767,91.745 C404.077,91.745 406.807,89.945 406.807,86.495 L406.807,78.395 C406.807,76.206 405.487,73.145 401.707,73.145 C398.797,73.145 396.727,75.305 396.727,78.515 L396.727,86.495 L396.727,86.495 Z" id="Shape"></path>
                        <path d="M411.158,91.535 C413.617,89.165 416.048,86.765 418.477,84.395 C420.517,82.475 422.677,80.615 422.796,77.885 C422.796,74.975 420.817,73.145 418.236,73.145 C415.655,73.145 413.797,75.155 413.707,78.545 L411.337,78.545 C411.397,76.385 411.997,74.555 413.257,73.205 C414.727,71.434 416.917,70.955 418.477,70.955 C422.586,70.955 425.317,73.955 425.256,77.765 C425.166,80.164 424.057,81.845 421.866,84.124 C419.436,86.555 417.007,88.984 414.547,91.414 L425.317,91.414 L425.317,93.544 L411.158,93.544 L411.158,91.535 L411.158,91.535 Z" id="Shape"></path>
                        <path d="M433.625,73.475 L429.155,73.475 L429.155,71.345 L436.115,71.345 L436.115,93.544 L433.625,93.544 L433.625,73.475 L433.625,73.475 Z" id="Shape"></path>
                        <path d="M450.005,73.475 L445.535,73.475 L445.535,71.345 L452.495,71.345 L452.495,93.544 L450.005,93.544 L450.005,73.475 L450.005,73.475 Z" id="Shape"></path>
                        <path d="M470.585,71.345 L466.146,77.795 C465.816,78.305 465.456,78.815 465.096,79.355 C465.635,78.995 466.715,78.575 467.915,78.575 C471.575,78.575 475.055,81.426 475.055,86.075 C475.055,90.425 471.725,93.934 467.316,93.934 C464.675,93.934 462.606,92.914 461.316,91.294 C460.026,89.824 459.516,87.844 459.516,86.254 C459.516,83.765 460.476,82.025 461.466,80.555 L467.766,71.345 L470.585,71.345 L470.585,71.345 Z M461.976,86.405 C461.976,89.344 464.076,91.745 467.226,91.745 C470.345,91.745 472.565,89.285 472.565,86.285 C472.565,82.745 469.925,80.765 467.345,80.765 C465.005,80.765 461.976,82.475 461.976,86.374 L461.976,86.405 L461.976,86.405 Z" id="Shape"></path>
                    </g>
                </g>
                <g id="Join_Us" transform="translate(226.000000, 78.000000)" fill="#000000" sketch:type="MSShapeGroup">
                    <g id="Group">
                        <path d="M71.867,15.816 C71.867,17.436 71.777,18.816 71.267,20.016 C70.877,20.826 70.247,21.636 69.437,22.206 C68.267,23.016 66.857,23.376 65.597,23.376 C63.917,23.376 60.437,22.506 59.597,18.846 C59.507,18.516 59.447,18.156 59.417,17.796 L62.087,17.796 C62.087,17.946 62.117,18.066 62.147,18.246 C62.807,20.616 64.697,21.186 65.717,21.186 C67.547,21.156 68.627,20.136 68.987,19.116 C69.317,18.246 69.377,17.346 69.377,16.296 L69.377,0.787 L71.867,0.787 L71.867,15.816 L71.867,15.816 Z" id="Shape"></path>
                        <path d="M74.117,14.886 C74.117,10.386 77.477,6.396 82.667,6.396 C87.887,6.396 91.247,10.386 91.247,14.916 C91.247,19.446 87.887,23.406 82.667,23.406 C77.477,23.406 74.117,19.446 74.117,14.916 L74.117,14.886 L74.117,14.886 Z M76.307,14.946 C76.307,18.606 79.097,21.365 82.667,21.365 C86.267,21.365 89.026,18.605 89.026,14.915 C89.026,11.225 86.266,8.465 82.667,8.465 C79.097,8.465 76.307,11.225 76.307,14.915 L76.307,14.946 L76.307,14.946 Z" id="Shape"></path>
                        <path d="M93.677,0.786 L95.897,0.786 L95.897,3.876 L93.677,3.876 L93.677,0.786 L93.677,0.786 Z M93.677,6.846 L95.897,6.846 L95.897,22.985 L93.677,22.985 L93.677,6.846 L93.677,6.846 Z" id="Shape"></path>
                        <path d="M99.317,6.846 L101.417,6.846 C101.417,7.746 101.417,8.646 101.387,9.726 C102.317,7.626 104.507,6.336 107.387,6.396 C112.397,6.456 114.167,9.876 114.167,13.806 L114.167,22.986 L111.977,22.986 L111.977,14.257 C111.977,10.777 110.417,8.407 106.787,8.467 C103.457,8.497 101.537,10.507 101.537,13.867 L101.537,22.987 L99.317,22.987 L99.317,6.846 L99.317,6.846 Z" id="Shape"></path>
                        <path d="M127.786,0.786 L127.786,14.855 C127.786,16.535 127.786,17.825 128.836,19.325 C129.616,20.435 131.086,21.185 132.706,21.185 C134.296,21.185 135.766,20.465 136.516,19.355 C137.566,17.885 137.566,16.595 137.566,14.855 L137.566,0.786 L140.026,0.786 L140.026,14.855 C140.056,17.435 139.726,19.985 137.506,21.695 C136.276,22.745 134.626,23.375 132.706,23.375 C131.146,23.375 129.196,22.925 127.816,21.695 C125.476,19.805 125.296,17.285 125.296,14.855 L125.296,0.786 L127.786,0.786 L127.786,0.786 Z" id="Shape"></path>
                        <path d="M150.735,10.896 C150.735,9.186 149.595,8.226 147.975,8.226 C146.205,8.226 145.125,9.426 145.185,10.836 C145.245,12.366 146.415,12.996 148.365,13.566 C150.675,14.196 153.255,14.856 153.375,18.306 C153.495,21.276 151.095,23.436 148.035,23.436 C145.425,23.436 142.545,21.786 142.515,18.396 L144.704,18.396 C144.794,20.616 146.444,21.606 148.064,21.606 C149.924,21.606 151.214,20.226 151.184,18.576 C151.124,16.746 149.924,15.996 147.134,15.186 C144.824,14.496 143.024,13.566 142.964,11.016 C142.964,8.106 145.274,6.396 148.004,6.396 C150.254,6.396 152.774,7.626 152.923,10.896 L150.735,10.896 L150.735,10.896 Z" id="Shape"></path>
                        <path d="M163.875,0.786 L166.335,0.786 L166.335,22.985 L163.875,22.985 L163.875,0.786 L163.875,0.786 Z" id="Shape"></path>
                        <path d="M169.845,6.846 L171.945,6.846 C171.945,7.746 171.945,8.646 171.915,9.726 C172.845,7.626 175.035,6.336 177.915,6.396 C182.925,6.456 184.695,9.876 184.695,13.806 L184.695,22.986 L182.505,22.986 L182.505,14.257 C182.505,10.777 180.945,8.407 177.315,8.467 C173.985,8.497 172.065,10.507 172.065,13.867 L172.065,22.987 L169.845,22.987 L169.845,6.846 L169.845,6.846 Z" id="Shape"></path>
                        <path d="M196.364,0.786 L198.824,0.786 L198.824,11.526 L207.853,0.786 L210.553,0.786 L201.254,11.856 L211.483,22.985 L208.393,22.985 L198.824,12.455 L198.824,22.985 L196.364,22.985 L196.364,0.786 L196.364,0.786 Z" id="Shape"></path>
                        <path d="M212.714,0.786 L214.934,0.786 L214.934,3.876 L212.714,3.876 L212.714,0.786 L212.714,0.786 Z M212.714,6.846 L214.934,6.846 L214.934,22.985 L212.714,22.985 L212.714,6.846 L212.714,6.846 Z" id="Shape"></path>
                        <path d="M234.072,17.526 C233.022,20.946 229.873,23.436 226.003,23.436 C220.543,23.436 217.333,19.236 217.333,14.916 C217.333,10.146 220.963,6.396 225.853,6.396 C229.483,6.396 232.963,8.556 234.073,12.426 L231.794,12.426 C230.773,9.696 228.224,8.436 225.944,8.436 C224.053,8.436 222.734,9.006 221.383,10.266 C220.303,11.316 219.554,13.056 219.554,14.916 C219.554,18.726 222.433,21.366 225.913,21.366 C229.003,21.336 231.073,19.476 231.763,17.526 L234.072,17.526 L234.072,17.526 Z" id="Shape"></path>
                        <path d="M236.263,0.786 L238.483,0.786 L238.483,13.475 L245.743,6.846 L248.473,6.846 L240.703,13.926 L248.832,22.986 L246.223,22.986 L238.483,14.406 L238.483,22.986 L236.263,22.986 L236.263,0.786 L236.263,0.786 Z" id="Shape"></path>
                        <path d="M250.544,0.786 L252.764,0.786 L252.764,3.876 L250.544,3.876 L250.544,0.786 L250.544,0.786 Z M250.544,6.846 L252.764,6.846 L252.764,22.985 L250.544,22.985 L250.544,6.846 L250.544,6.846 Z" id="Shape"></path>
                        <path d="M256.182,6.846 L258.282,6.846 C258.282,7.746 258.282,8.646 258.252,9.726 C259.183,7.626 261.372,6.336 264.252,6.396 C269.262,6.456 271.032,9.876 271.032,13.806 L271.032,22.986 L268.842,22.986 L268.842,14.257 C268.842,10.777 267.282,8.407 263.653,8.467 C260.323,8.497 258.403,10.507 258.403,13.867 L258.403,22.987 L256.183,22.987 L256.183,6.846 L256.182,6.846 Z" id="Shape"></path>
                        <path d="M290.561,21.126 C290.561,24.186 289.572,26.136 288.162,27.486 C286.572,29.046 284.232,29.976 282.042,29.976 C278.022,29.976 275.083,27.666 274.063,24.756 L276.613,24.756 C277.004,25.446 277.573,26.226 278.533,26.886 C279.703,27.726 281.083,28.056 282.103,28.056 C285.193,28.056 288.342,25.656 288.342,21.636 L288.342,19.566 C287.202,21.846 284.952,23.436 281.832,23.436 C276.793,23.436 273.402,19.596 273.402,14.946 C273.402,10.116 276.912,6.396 281.832,6.396 C285.012,6.396 287.472,8.196 288.372,10.176 L288.372,6.846 L290.561,6.846 L290.561,21.126 L290.561,21.126 Z M275.622,14.916 C275.622,18.186 277.933,21.366 282.102,21.366 C283.932,21.366 285.492,20.676 286.631,19.506 C287.741,18.336 288.402,16.716 288.431,14.946 C288.431,13.596 287.982,12.006 286.961,10.716 C285.971,9.426 284.352,8.466 282.041,8.466 C278.502,8.466 275.621,11.106 275.621,14.886 L275.621,14.916 L275.622,14.916 Z" id="Shape"></path>
                        <path d="M300.702,11.946 C300.702,5.106 306.012,0.397 312.281,0.397 C318.791,0.397 323.861,5.376 323.861,11.886 C323.861,18.396 318.821,23.376 312.281,23.376 C305.712,23.376 300.702,18.306 300.702,11.976 L300.702,11.946 L300.702,11.946 Z M303.192,11.886 C303.192,17.106 307.122,21.186 312.311,21.186 C317.561,21.186 321.401,16.956 321.401,11.886 C321.401,6.816 317.561,2.586 312.281,2.586 C307.061,2.586 303.192,6.726 303.192,11.856 L303.192,11.886 L303.192,11.886 Z" id="Shape"></path>
                        <path d="M326.712,8.616 L324.342,8.616 L324.342,6.846 L326.712,6.846 L326.712,5.526 C326.712,0.547 330.642,0.397 332.382,0.397 L332.382,2.167 C331.272,2.227 328.903,2.227 328.903,5.737 L328.903,6.847 L332.382,6.847 L332.382,8.617 L328.903,8.617 L328.903,22.987 L326.713,22.987 L326.713,8.616 L326.712,8.616 Z" id="Shape"></path>
                        <path d="M333.222,8.616 L330.852,8.616 L330.852,6.846 L333.222,6.846 L333.222,5.526 C333.222,0.547 337.152,0.397 338.892,0.397 L338.892,2.167 C337.782,2.227 335.413,2.227 335.413,5.737 L335.413,6.847 L338.892,6.847 L338.892,8.617 L335.413,8.617 L335.413,22.987 L333.223,22.987 L333.223,8.616 L333.222,8.616 Z" id="Shape"></path>
                        <path d="M0.603,35.786 L6.453,35.786 C8.463,35.786 9.843,36.146 10.833,36.836 C12.633,37.856 13.233,39.716 13.233,41.456 C13.233,44.066 11.763,45.386 10.263,46.166 C14.253,47.396 14.523,50.786 14.523,51.806 C14.493,54.206 13.383,56.006 11.493,56.996 C10.173,57.806 8.913,57.986 6.723,57.986 L0.603,57.986 L0.603,35.786 L0.603,35.786 Z M3.063,45.386 L6.423,45.386 C7.443,45.386 8.343,45.266 9.033,44.936 C10.443,44.156 10.833,42.986 10.833,41.636 C10.833,40.016 9.963,38.906 9.033,38.486 C8.463,38.186 7.713,38.006 6.273,37.976 L3.063,37.976 L3.063,45.386 L3.063,45.386 Z M3.063,55.796 L7.083,55.796 C7.983,55.796 8.973,55.706 9.783,55.376 C11.103,54.806 12.093,53.666 12.123,51.686 C12.123,49.886 11.163,48.566 9.753,47.936 C8.763,47.516 8.013,47.486 6.633,47.486 L3.063,47.486 L3.063,55.796 L3.063,55.796 Z" id="Shape"></path>
                        <path d="M15.903,49.886 C15.903,45.386 19.263,41.396 24.453,41.396 C29.673,41.396 33.033,45.386 33.033,49.916 C33.033,54.446 29.673,58.406 24.453,58.406 C19.263,58.406 15.903,54.446 15.903,49.916 L15.903,49.886 L15.903,49.886 Z M18.093,49.946 C18.093,53.606 20.883,56.365 24.453,56.365 C28.053,56.365 30.813,53.605 30.813,49.915 C30.813,46.225 28.053,43.465 24.453,43.465 C20.883,43.465 18.093,46.225 18.093,49.915 L18.093,49.946 L18.093,49.946 Z" id="Shape"></path>
                        <path d="M42.722,45.896 C42.722,44.186 41.582,43.226 39.962,43.226 C38.192,43.226 37.112,44.426 37.172,45.836 C37.232,47.366 38.402,47.996 40.352,48.566 C42.662,49.196 45.242,49.856 45.362,53.306 C45.482,56.276 43.082,58.436 40.022,58.436 C37.412,58.436 34.532,56.786 34.502,53.396 L36.692,53.396 C36.782,55.616 38.432,56.606 40.052,56.606 C41.912,56.606 43.202,55.226 43.172,53.576 C43.112,51.746 41.912,50.996 39.122,50.186 C36.812,49.496 35.012,48.566 34.952,46.016 C34.952,43.106 37.262,41.396 39.992,41.396 C42.242,41.396 44.762,42.626 44.911,45.896 L42.722,45.896 L42.722,45.896 Z" id="Shape"></path>
                        <path d="M49.323,43.616 L46.143,43.616 L46.143,41.846 L49.323,41.846 L49.323,35.786 L51.513,35.786 L51.513,41.846 L55.053,41.846 L55.053,43.616 L51.513,43.616 L51.513,57.986 L49.323,57.986 L49.323,43.616 L49.323,43.616 Z" id="Shape"></path>
                        <path d="M54.692,49.886 C54.692,45.386 58.052,41.396 63.242,41.396 C68.462,41.396 71.822,45.386 71.822,49.916 C71.822,54.446 68.462,58.406 63.242,58.406 C58.052,58.406 54.692,54.446 54.692,49.916 L54.692,49.886 L54.692,49.886 Z M56.882,49.946 C56.882,53.606 59.672,56.365 63.242,56.365 C66.842,56.365 69.602,53.605 69.602,49.915 C69.602,46.225 66.842,43.465 63.242,43.465 C59.672,43.465 56.882,46.225 56.882,49.915 L56.882,49.946 L56.882,49.946 Z" id="Shape"></path>
                        <path d="M74.252,41.846 L76.352,41.846 C76.352,42.746 76.352,43.646 76.322,44.726 C77.252,42.626 79.442,41.336 82.322,41.396 C87.332,41.456 89.102,44.876 89.102,48.806 L89.102,57.986 L86.912,57.986 L86.912,49.257 C86.912,45.777 85.352,43.407 81.722,43.467 C78.392,43.497 76.472,45.507 76.472,48.867 L76.472,57.987 L74.252,57.987 L74.252,41.846 L74.252,41.846 Z" id="Shape"></path>
                        <path d="M100.291,57.986 L100.291,35.787 L103.771,35.787 L111.991,54.416 L120.18,35.787 L123.66,35.787 L123.66,57.986 L121.32,57.986 L121.38,38.247 L112.77,57.986 L111.18,57.986 L102.54,38.247 L102.6,57.986 L100.291,57.986 L100.291,57.986 Z" id="Shape"></path>
                        <path d="M143.341,57.986 L141.121,57.986 L141.121,54.656 C139.861,57.086 137.401,58.436 134.521,58.436 C129.271,58.436 126.151,54.356 126.151,49.916 C126.151,45.176 129.601,41.396 134.521,41.396 C137.971,41.396 140.341,43.406 141.121,45.236 L141.121,41.846 L143.341,41.846 L143.341,57.986 L143.341,57.986 Z M128.341,49.946 C128.371,52.856 130.381,56.365 134.82,56.365 C137.67,56.365 139.77,54.715 140.64,52.435 C141,51.655 141.18,50.755 141.18,49.885 C141.21,48.985 141.03,48.085 140.67,47.305 C139.77,45.085 137.61,43.435 134.76,43.435 C131.04,43.435 128.34,46.315 128.34,49.914 L128.34,49.946 L128.341,49.946 Z" id="Shape"></path>
                        <path d="M146.761,41.846 L148.861,41.846 L148.861,44.486 C150.031,42.086 152.131,41.456 154.021,41.396 L154.021,43.586 L153.811,43.586 C150.691,43.586 148.951,45.536 148.951,49.196 L148.951,57.986 L146.762,57.986 L146.762,41.846 L146.761,41.846 Z" id="Shape"></path>
                        <path d="M170.46,57.986 L168.24,57.986 L168.24,54.656 C166.98,57.086 164.52,58.436 161.64,58.436 C156.39,58.436 153.27,54.356 153.27,49.916 C153.27,45.176 156.72,41.396 161.64,41.396 C165.09,41.396 167.46,43.406 168.24,45.236 L168.24,41.846 L170.46,41.846 L170.46,57.986 L170.46,57.986 Z M155.461,49.946 C155.491,52.856 157.501,56.365 161.941,56.365 C164.791,56.365 166.891,54.715 167.76,52.435 C168.12,51.655 168.3,50.755 168.3,49.885 C168.33,48.985 168.15,48.085 167.79,47.305 C166.89,45.085 164.73,43.435 161.88,43.435 C158.16,43.435 155.46,46.315 155.46,49.914 L155.46,49.946 L155.461,49.946 Z" id="Shape"></path>
                        <path d="M175.14,43.616 L171.96,43.616 L171.96,41.846 L175.14,41.846 L175.14,35.786 L177.33,35.786 L177.33,41.846 L180.87,41.846 L180.87,43.616 L177.33,43.616 L177.33,57.986 L175.14,57.986 L175.14,43.616 L175.14,43.616 Z" id="Shape"></path>
                        <path d="M182.4,35.786 L184.62,35.786 L184.62,41.696 L184.62,44.486 C185.61,42.356 188.1,41.336 190.38,41.396 C192.93,41.396 194.61,42.206 195.72,43.616 C196.83,45.026 197.25,46.976 197.25,49.286 L197.25,57.986 L195.06,57.986 L195.06,49.376 C195.06,47.636 194.7,46.167 193.89,45.116 C193.02,44.066 191.76,43.466 189.84,43.466 C188.07,43.466 186.75,44.096 185.91,45.056 C185.04,46.016 184.62,47.336 184.62,48.806 L184.62,57.986 L182.4,57.986 L182.4,35.786 L182.4,35.786 Z" id="Shape"></path>
                        <path d="M199.62,49.886 C199.62,45.386 202.98,41.396 208.169,41.396 C213.389,41.396 216.749,45.386 216.749,49.916 C216.749,54.446 213.389,58.406 208.169,58.406 C202.98,58.406 199.62,54.446 199.62,49.916 L199.62,49.886 L199.62,49.886 Z M201.81,49.946 C201.81,53.606 204.6,56.365 208.169,56.365 C211.77,56.365 214.529,53.605 214.529,49.915 C214.529,46.225 211.769,43.465 208.169,43.465 C204.6,43.465 201.81,46.225 201.81,49.915 L201.81,49.946 L201.81,49.946 Z" id="Shape"></path>
                        <path d="M219.179,41.846 L221.279,41.846 C221.279,42.746 221.279,43.646 221.249,44.726 C222.18,42.626 224.369,41.336 227.249,41.396 C232.259,41.456 234.029,44.876 234.029,48.806 L234.029,57.986 L231.839,57.986 L231.839,49.257 C231.839,45.777 230.279,43.407 226.65,43.467 C223.32,43.497 221.4,45.507 221.4,48.867 L221.4,57.987 L219.18,57.987 L219.18,41.846 L219.179,41.846 Z" id="Shape"></path>
                        <path d="M242.188,35.786 L244.738,35.786 L249.778,54.596 L254.638,35.786 L256.497,35.786 L261.447,54.596 L266.426,35.786 L268.946,35.786 L262.737,57.985 L260.306,57.985 L255.567,39.956 L250.827,57.985 L248.338,57.985 L242.188,35.786 L242.188,35.786 Z" id="Shape"></path>
                        <path d="M269.818,50.546 C269.938,54.596 273.388,56.546 276.118,56.516 C278.608,56.516 280.618,55.286 281.668,53.186 L283.979,53.186 C283.229,54.926 282.088,56.246 280.708,57.116 C279.358,57.986 277.769,58.436 276.118,58.436 C270.509,58.436 267.598,53.966 267.598,49.946 C267.598,45.206 271.258,41.396 276.088,41.396 C278.367,41.396 280.468,42.206 281.997,43.676 C283.857,45.476 284.757,47.966 284.518,50.546 L269.818,50.546 L269.818,50.546 Z M282.328,48.776 C282.179,45.956 279.448,43.196 276.118,43.286 C272.639,43.286 270.058,45.836 269.848,48.776 L282.328,48.776 L282.328,48.776 Z" id="Shape"></path>
                        <path d="M287.758,50.546 C287.878,54.596 291.328,56.546 294.058,56.516 C296.548,56.516 298.558,55.286 299.608,53.186 L301.919,53.186 C301.169,54.926 300.028,56.246 298.648,57.116 C297.298,57.986 295.709,58.436 294.058,58.436 C288.449,58.436 285.538,53.966 285.538,49.946 C285.538,45.206 289.198,41.396 294.028,41.396 C296.307,41.396 298.408,42.206 299.937,43.676 C301.797,45.476 302.697,47.966 302.458,50.546 L287.758,50.546 L287.758,50.546 Z M300.267,48.776 C300.118,45.956 297.387,43.196 294.057,43.286 C290.578,43.286 287.997,45.836 287.787,48.776 L300.267,48.776 L300.267,48.776 Z" id="Shape"></path>
                        <path d="M304.767,35.786 L306.987,35.786 L306.987,48.475 L314.247,41.846 L316.977,41.846 L309.207,48.926 L317.336,57.986 L314.727,57.986 L306.987,49.406 L306.987,57.986 L304.767,57.986 L304.767,35.786 L304.767,35.786 Z" id="Shape"></path>
                        <path d="M318.927,50.546 C319.047,54.596 322.497,56.546 325.227,56.516 C327.717,56.516 329.727,55.286 330.777,53.186 L333.088,53.186 C332.338,54.926 331.197,56.246 329.817,57.116 C328.467,57.986 326.878,58.436 325.227,58.436 C319.618,58.436 316.707,53.966 316.707,49.946 C316.707,45.206 320.367,41.396 325.197,41.396 C327.476,41.396 329.577,42.206 331.106,43.676 C332.966,45.476 333.866,47.966 333.627,50.546 L318.927,50.546 L318.927,50.546 Z M331.437,48.776 C331.288,45.956 328.557,43.196 325.227,43.286 C321.748,43.286 319.167,45.836 318.957,48.776 L331.437,48.776 L331.437,48.776 Z" id="Shape"></path>
                        <path d="M335.878,41.846 L337.978,41.846 C337.978,42.746 337.978,43.646 337.948,44.726 C338.879,42.626 341.068,41.336 343.948,41.396 C348.958,41.456 350.728,44.876 350.728,48.806 L350.728,57.986 L348.538,57.986 L348.538,49.257 C348.538,45.777 346.978,43.407 343.349,43.467 C340.019,43.497 338.099,45.507 338.099,48.867 L338.099,57.987 L335.879,57.987 L335.879,41.846 L335.878,41.846 Z" id="Shape"></path>
                        <path d="M370.257,57.986 L368.127,57.986 L368.127,54.656 C366.987,56.786 364.827,58.436 361.468,58.436 C356.308,58.436 353.128,54.416 353.128,49.886 C353.128,45.086 356.607,41.396 361.438,41.396 C364.978,41.396 367.318,43.436 368.038,45.116 L368.038,41.696 L368.038,35.786 L370.258,35.786 L370.258,57.986 L370.257,57.986 Z M355.317,49.916 C355.347,53.156 357.597,56.366 361.797,56.366 C363.597,56.366 365.246,55.646 366.387,54.476 C367.557,53.276 368.246,51.626 368.187,49.826 C368.187,47.996 367.497,46.436 366.327,45.296 C365.187,44.126 363.567,43.436 361.767,43.436 C358.047,43.436 355.317,46.256 355.317,49.886 L355.317,49.916 L355.317,49.916 Z" id="Shape"></path>
                        <path d="M380.727,57.986 L378.057,57.986 L387.327,35.787 L389.726,35.787 L398.906,57.986 L396.207,57.986 L393.627,51.746 L383.277,51.746 L380.727,57.986 L380.727,57.986 Z M388.436,38.576 L384.027,49.705 L392.877,49.705 L388.436,38.576 L388.436,38.576 Z" id="Shape"></path>
                        <path d="M401.668,43.616 L398.488,43.616 L398.488,41.846 L401.668,41.846 L401.668,35.786 L403.857,35.786 L403.857,41.846 L407.397,41.846 L407.397,43.616 L403.857,43.616 L403.857,57.986 L401.668,57.986 L401.668,43.616 L401.668,43.616 Z" id="Shape"></path>
                    </g>
                </g>
                <g id="Main_Logo" transform="translate(138.000000, 265.000000)" sketch:type="MSShapeGroup">
                    <g id="Group">
                        <g id="Shape" fill="#000000">
                            <path d="M185.989,21.611 L167.57,21.611 L167.57,0.668 L228.127,0.668 L228.127,21.611 L209.834,21.611 L209.834,94.027 L185.989,94.027 L185.989,21.611 L185.989,21.611 Z"></path>
                            <path d="M230.143,94.027 L230.143,0.669 L253.987,0.669 L253.987,35.741 L284.518,35.741 L284.518,0.669 L308.363,0.669 L308.363,94.027 L284.518,94.027 L284.518,56.684 L253.987,56.684 L253.987,94.027 L230.143,94.027 L230.143,94.027 Z"></path>
                            <path d="M317.695,0.669 L370.556,0.669 L370.556,21.612 L341.539,21.612 L341.539,36.12 L369.673,36.12 L369.673,57.062 L341.539,57.062 L341.539,73.085 L370.556,73.085 L370.556,94.027 L317.695,94.027 L317.695,0.669 L317.695,0.669 Z"></path>
                            <path d="M19.029,125.827 L0.609,125.827 L0.609,104.884 L61.166,104.884 L61.166,125.827 L42.872,125.827 L42.872,198.243 L19.028,198.243 L19.028,125.827 L19.029,125.827 Z"></path>
                            <path d="M168.968,104.885 C186.252,104.885 192.686,107.534 197.732,111.698 C205.05,117.754 208.709,126.964 208.709,136.426 C208.709,145.888 204.798,155.855 198.868,160.901 C192.434,166.326 186.127,168.975 171.618,168.975 L162.282,168.975 L162.282,198.244 L138.437,198.244 L138.437,104.885 L168.968,104.885 L168.968,104.885 Z M162.281,148.031 L170.986,148.031 C173.257,148.031 177.042,148.031 180.196,146.643 C183.351,145.255 185.874,142.354 185.874,136.803 C185.874,131.252 183.224,128.603 179.944,127.215 C176.665,125.827 172.754,125.827 170.104,125.827 L162.282,125.827 L162.282,148.031 L162.281,148.031 Z"></path>
                            <path d="M211.101,104.885 L241.632,104.885 C256.267,104.885 265.35,107.534 270.523,111.571 C278.345,117.627 281.878,126.837 281.878,137.055 C281.878,144.246 279.859,149.797 277.21,153.961 C274.055,158.881 269.514,162.035 265.098,163.928 L284.401,198.243 L259.799,198.243 L235.451,153.204 L239.362,153.204 C245.418,153.204 250.59,152.7 253.745,150.681 C256.646,148.789 259.044,144.373 259.044,139.201 C259.044,134.281 256.647,130.37 253.493,128.351 C250.843,126.711 247.058,125.828 243.779,125.828 L234.948,125.828 L234.948,198.244 L211.103,198.244 L211.103,104.885 L211.101,104.885 Z"></path>
                            <path d="M281.246,152.573 C281.246,122.042 304.711,103.118 330.449,103.118 C359.213,103.118 379.777,125.574 379.777,151.563 C379.777,177.552 359.339,200.008 330.322,200.008 C300.927,200.008 281.246,176.668 281.246,152.698 L281.246,152.573 L281.246,152.573 Z M305.089,151.438 C305.089,165.694 314.803,179.067 330.826,179.067 C347.732,179.067 355.932,163.676 355.932,151.691 C355.932,139.58 347.732,124.062 330.574,124.062 C314.047,124.062 305.089,138.192 305.089,151.313 L305.089,151.438 L305.089,151.438 Z"></path>
                            <path d="M381.034,152.573 C381.034,122.042 404.499,103.118 430.237,103.118 C459.001,103.118 479.565,125.574 479.565,151.563 C479.565,177.552 459.127,200.008 430.11,200.008 C400.715,200.008 381.034,176.668 381.034,152.698 L381.034,152.573 L381.034,152.573 Z M404.878,151.438 C404.878,165.694 414.592,179.067 430.615,179.067 C447.521,179.067 455.721,163.676 455.721,151.691 C455.721,139.58 447.521,124.062 430.363,124.062 C413.836,124.062 404.878,138.192 404.878,151.313 L404.878,151.438 L404.878,151.438 Z"></path>
                            <path d="M484.86,198.243 L484.86,104.884 L516.779,104.884 L534.315,165.063 L551.346,104.884 L583.391,104.884 L583.391,198.243 L561.439,198.243 L562.196,128.35 L542.011,198.243 L526.241,198.243 L506.055,128.35 L506.812,198.243 L484.86,198.243 L484.86,198.243 Z"></path>
                        </g>
                        <g transform="translate(389.000000, 0.000000)" id="Shape" fill="#EF2B68">
                            <path d="M63.421,61.554 L55.66,74.959 L12.704,72.543 L17,65.08 L63.421,61.554 L63.421,61.554 Z M94.488,18.836 L98.378,33.629 L37.416,29.62 L41.713,22.157 L94.488,18.836 L94.488,18.836 Z M54.068,0.704 L89.754,0.725 L92.451,10.847 L49.772,8.164 L54.068,0.704 L54.068,0.704 Z M50.932,83.298 L44.735,93.942 L0.341,93.998 L4.637,86.535 L50.932,83.298 L50.932,83.298 Z M128.869,54.55 L118.13,73.173 L128.354,73.173 C133.099,73.173 141.601,70.809 144.217,64.051 C146.637,57.784 142.176,54.536 139.075,54.546 L128.869,54.55 L128.869,54.55 Z M139.124,36.737 L148.05,36.674 C153.988,36.639 160.181,33.928 162.44,28.415 C164.544,23.302 161.735,18.946 158.007,18.956 L149.372,18.949 L139.124,36.737 L139.124,36.737 Z M98.711,33.629 L107.728,17.987 L138.237,16.03 L139.296,14.136 L111.081,12.161 L117.675,0.703 L170.02,0.696 C186.107,0.696 198.007,6.448 193.385,23.374 C191.989,28.502 185.452,41.405 166.267,46.816 C170.335,47.3 180.471,51.789 178.724,63.437 C175.631,84.098 148.878,93.936 134.007,93.943 L72.217,93.971 L69.166,82.011 L101.537,79.738 L102.631,77.841 L67.531,75.698 L63.747,61.529 L113.693,58.622 L114.777,56.742 L25.055,51.085 L29.352,43.615 L125.933,37.351 L127.02,35.471 L98.711,33.629 L98.711,33.629 Z"></path>
                            <path d="M63.421,61.554 L55.66,74.959 L12.704,72.543 L17,65.08 L63.421,61.554 L63.421,61.554 Z M94.488,18.836 L98.378,33.629 L37.416,29.62 L41.713,22.157 L94.488,18.836 L94.488,18.836 Z M54.068,0.704 L89.754,0.725 L92.451,10.847 L49.772,8.164 L54.068,0.704 L54.068,0.704 Z M50.932,83.298 L44.735,93.942 L0.341,93.998 L4.637,86.535 L50.932,83.298 L50.932,83.298 Z M128.869,54.55 L118.13,73.173 L128.354,73.173 C133.099,73.173 141.601,70.809 144.217,64.051 C146.637,57.784 142.176,54.536 139.075,54.546 L128.869,54.55 L128.869,54.55 Z M139.124,36.737 L148.05,36.674 C153.988,36.639 160.181,33.928 162.44,28.415 C164.544,23.302 161.735,18.946 158.007,18.956 L149.372,18.949 L139.124,36.737 L139.124,36.737 Z M98.711,33.629 L107.728,17.987 L138.237,16.03 L139.296,14.136 L111.081,12.161 L117.675,0.703 L170.02,0.696 C186.107,0.696 198.007,6.448 193.385,23.374 C191.989,28.502 185.452,41.405 166.267,46.816 C170.335,47.3 180.471,51.789 178.724,63.437 C175.631,84.098 148.878,93.936 134.007,93.943 L72.217,93.971 L69.166,82.011 L101.537,79.738 L102.631,77.841 L67.531,75.698 L63.747,61.529 L113.693,58.622 L114.777,56.742 L25.055,51.085 L29.352,43.615 L125.933,37.351 L127.02,35.471 L98.711,33.629 L98.711,33.629 Z"></path>
                        </g>
                        <path d="M111.617,198.212 L111.617,184.722 L84.637,184.722 L76.442,198.212 L47.824,198.212 L111.87,104.917 L135.445,104.917 L135.445,198.212 L111.617,198.212 L111.617,198.212 Z M111.617,139.965 L111.366,139.965 L95.984,165.811 L111.617,165.811 L111.617,139.965 L111.617,139.965 Z" id="Shape" fill="#000000"></path>
                    </g>
                </g>
            </g>
        </g>
    </g>
</svg>