<?xml version="1.0" encoding="UTF-8" standalone="no"?>
<svg width="60px" height="29px" viewBox="0 0 60 29" version="1.1" xmlns="http://www.w3.org/2000/svg" xmlns:xlink="http://www.w3.org/1999/xlink" xmlns:sketch="http://www.bohemiancoding.com/sketch/ns">
    <!-- Generator: Sketch 3.5.2 (25235) - http://www.bohemiancoding.com/sketch -->
    <title>nb</title>
    <desc>Created with Sketch.</desc>
    <defs></defs>
    <g id="Page-1" stroke="none" stroke-width="1" fill="none" fill-rule="evenodd" sketch:type="MSPage">
        <g id="Artboard-2" sketch:type="MSArtboardGroup" transform="translate(-249.000000, -124.000000)" fill="#000000">
            <g id="nb" sketch:type="MSLayerGroup" transform="translate(249.000000, 124.000000)">
                <path d="M19.5141538,18.9900638 L17.1261538,23.1256489 L3.90892308,22.3802872 L5.23076923,20.0778723 L19.5141538,18.9900638 L19.5141538,18.9900638 Z M29.0732308,5.81110638 L30.2701538,10.3749043 L11.5126154,9.13808511 L12.8347692,6.83567021 L29.0732308,5.81110638 L29.0732308,5.81110638 Z M16.6363077,0.217191489 L27.6166154,0.223670213 L28.4464615,3.34641489 L15.3144615,2.51868085 L16.6363077,0.217191489 L16.6363077,0.217191489 Z M15.6713846,25.6983191 L13.7646154,28.9821064 L0.104923077,28.999383 L1.42676923,26.6969681 L15.6713846,25.6983191 L15.6713846,25.6983191 Z M39.652,16.8292553 L36.3476923,22.5746489 L39.4935385,22.5746489 C40.9535385,22.5746489 43.5695385,21.8453298 44.3744615,19.7604149 C45.1190769,17.8269787 43.7464615,16.8249362 42.7923077,16.8280213 L39.652,16.8292553 L39.652,16.8292553 Z M42.8073846,11.3337553 L45.5538462,11.3143191 C47.3809231,11.3035213 49.2864615,10.4671489 49.9815385,8.76632979 C50.6289231,7.18891489 49.7646154,5.84504255 48.6175385,5.84812766 L45.9606154,5.84596809 L42.8073846,11.3337553 L42.8073846,11.3337553 Z M30.3726154,10.3749043 L33.1470769,5.54918085 L42.5344615,4.94542553 L42.8603077,4.36110638 L34.1787692,3.75179787 L36.2076923,0.216882979 L52.3138462,0.214723404 C57.2636923,0.214723404 60.9252308,1.9892766 59.5030769,7.21112766 C59.0735385,8.79317021 57.0621538,12.773883 51.1590769,14.443234 C52.4107692,14.5925532 55.5295385,15.9774574 54.992,19.5709894 C54.0403077,25.9451277 45.8086154,28.9802553 41.2329231,28.9824149 L22.2206154,28.9910532 L21.2818462,25.301266 L31.2421538,24.6000213 L31.5787692,24.0147766 L20.7787692,23.3536383 L19.6144615,18.9823511 L34.9824615,18.0855106 L35.316,17.5055106 L7.70923077,15.760266 L9.03138462,13.4556915 L38.7486154,11.5231809 L39.0830769,10.9431809 L30.3726154,10.3749043 L30.3726154,10.3749043 Z" id="Shape" sketch:type="MSShapeGroup"></path>
                <path d="M19.5141538,18.9900638 L17.1261538,23.1256489 L3.90892308,22.3802872 L5.23076923,20.0778723 L19.5141538,18.9900638 L19.5141538,18.9900638 Z M29.0732308,5.81110638 L30.2701538,10.3749043 L11.5126154,9.13808511 L12.8347692,6.83567021 L29.0732308,5.81110638 L29.0732308,5.81110638 Z M16.6363077,0.217191489 L27.6166154,0.223670213 L28.4464615,3.34641489 L15.3144615,2.51868085 L16.6363077,0.217191489 L16.6363077,0.217191489 Z M15.6713846,25.6983191 L13.7646154,28.9821064 L0.104923077,28.999383 L1.42676923,26.6969681 L15.6713846,25.6983191 L15.6713846,25.6983191 Z M39.652,16.8292553 L36.3476923,22.5746489 L39.4935385,22.5746489 C40.9535385,22.5746489 43.5695385,21.8453298 44.3744615,19.7604149 C45.1190769,17.8269787 43.7464615,16.8249362 42.7923077,16.8280213 L39.652,16.8292553 L39.652,16.8292553 Z M42.8073846,11.3337553 L45.5538462,11.3143191 C47.3809231,11.3035213 49.2864615,10.4671489 49.9815385,8.76632979 C50.6289231,7.18891489 49.7646154,5.84504255 48.6175385,5.84812766 L45.9606154,5.84596809 L42.8073846,11.3337553 L42.8073846,11.3337553 Z M30.3726154,10.3749043 L33.1470769,5.54918085 L42.5344615,4.94542553 L42.8603077,4.36110638 L34.1787692,3.75179787 L36.2076923,0.216882979 L52.3138462,0.214723404 C57.2636923,0.214723404 60.9252308,1.9892766 59.5030769,7.21112766 C59.0735385,8.79317021 57.0621538,12.773883 51.1590769,14.443234 C52.4107692,14.5925532 55.5295385,15.9774574 54.992,19.5709894 C54.0403077,25.9451277 45.8086154,28.9802553 41.2329231,28.9824149 L22.2206154,28.9910532 L21.2818462,25.301266 L31.2421538,24.6000213 L31.5787692,24.0147766 L20.7787692,23.3536383 L19.6144615,18.9823511 L34.9824615,18.0855106 L35.316,17.5055106 L7.70923077,15.760266 L9.03138462,13.4556915 L38.7486154,11.5231809 L39.0830769,10.9431809 L30.3726154,10.3749043 L30.3726154,10.3749043 Z" id="Shape" sketch:type="MSShapeGroup"></path>
            </g>
        </g>
    </g>
</svg>