<?xml version="1.0" encoding="UTF-8" standalone="no"?>
<svg width="247px" height="51px" viewBox="0 0 247 51" version="1.1" xmlns="http://www.w3.org/2000/svg" xmlns:xlink="http://www.w3.org/1999/xlink" xmlns:sketch="http://www.bohemiancoding.com/sketch/ns">
    <!-- Generator: Sketch 3.5.2 (25235) - http://www.bohemiancoding.com/sketch -->
    <title>Artboard 1</title>
    <desc>Created with Sketch.</desc>
    <defs></defs>
    <g id="Page-1" stroke="none" stroke-width="1" fill="none" fill-rule="evenodd" sketch:type="MSPage">
        <g id="Artboard-1" sketch:type="MSArtboardGroup" fill="#000000">
            <g id="pbs" sketch:type="MSLayerGroup" transform="translate(15.000000, 10.000000)">
                <g id="Group" sketch:type="MSShapeGroup">
                    <path d="M5.29798622,14.8679487 C5.01774161,14.6376057 4.62517345,14.5224359 4.12026994,14.5224359 L2.12614267,14.5224359 L2.12614267,17.5826923 L4.12026994,17.5826923 C4.62517345,17.5826923 5.01774161,17.4581209 5.29798622,17.2089744 C5.57823083,16.9598278 5.71835103,16.56496 5.71835103,16.024359 C5.71835103,15.483758 5.57823083,15.0982918 5.29798622,14.8679487 L5.29798622,14.8679487 Z M6.92038593,18.6121795 C6.30894316,19.1198743 5.43579744,19.3737179 4.30092258,19.3737179 L2.12614267,19.3737179 L2.12614267,23.1108974 L0,23.1108974 L0,12.7173077 L4.46073069,12.7173077 C5.48906627,12.7173077 6.30894316,12.9852537 6.92038593,13.5211538 C7.53182871,14.057054 7.83754552,14.8867465 7.83754552,16.0102564 C7.83754552,17.2371856 7.53182871,18.1044846 6.92038593,18.6121795 L6.92038593,18.6121795 Z M15.9912332,20.6076923 C16.4891885,19.9730737 16.7381624,19.0705187 16.7381624,17.9 C16.7381624,16.7341822 16.4891885,15.8328023 15.9912332,15.1958333 C15.4932779,14.5588643 14.8204693,14.2403846 13.9727873,14.2403846 C13.1251052,14.2403846 12.4488226,14.5576891 11.9439191,15.1923077 C11.4390156,15.8269262 11.1865676,16.7294813 11.1865676,17.9 C11.1865676,19.0705187 11.4390156,19.9730737 11.9439191,20.6076923 C12.4488226,21.2423109 13.1251052,21.5596154 13.9727873,21.5596154 C14.8204693,21.5596154 15.4932779,21.2423109 15.9912332,20.6076923 L15.9912332,20.6076923 Z M17.3287576,22.1871795 C16.5551898,22.9957305 15.4365442,23.4 13.9727873,23.4 C12.5090303,23.4 11.3903847,22.9957305 10.616817,22.1871795 C9.57921711,21.1952942 9.06042496,19.7662486 9.06042496,17.9 C9.06042496,15.9961443 9.57921711,14.5670988 10.616817,13.6128205 C11.3903847,12.8042695 12.5090303,12.4 13.9727873,12.4 C15.4365442,12.4 16.5551898,12.8042695 17.3287576,13.6128205 C18.3617253,14.5670988 18.8782014,15.9961443 18.8782014,17.9 C18.8782014,19.7662486 18.3617253,21.1952942 17.3287576,22.1871795 L17.3287576,22.1871795 Z M21.9076073,12.7173077 L23.2625021,18.6685897 L23.5543256,20.325641 L23.8530973,18.7038462 L25.006495,12.7173077 L27.264653,12.7173077 L28.4805843,18.6685897 L28.7932523,20.325641 L29.1059204,18.7320513 L30.4747116,12.7173077 L32.6494915,12.7173077 L29.7659973,23.1108974 L27.7232328,23.1108974 L26.486457,17.0326923 L26.1251517,15.0230769 L25.7638464,17.0326923 L24.5270706,23.1108974 L22.5398915,23.1108974 L19.6355529,12.7173077 L21.9076073,12.7173077 Z M41.5153674,14.5576923 L36.0957881,14.5576923 L36.0957881,16.7647436 L41.070684,16.7647436 L41.070684,18.5698718 L36.0957881,18.5698718 L36.0957881,21.2423077 L41.7655019,21.2423077 L41.7655019,23.1108974 L34.0043863,23.1108974 L34.0043863,12.7173077 L41.5153674,12.7173077 L41.5153674,14.5576923 Z M45.5731038,14.5224359 L45.5731038,17.3147436 L47.9980181,17.3147436 C48.4797609,17.3147436 48.8410626,17.2583339 49.081934,17.1455128 C49.5080911,16.9480759 49.7211664,16.5579089 49.7211664,15.975 C49.7211664,15.3450823 49.5150392,14.9220096 49.1027785,14.7057692 C48.8711714,14.5835464 48.5237659,14.5224359 48.0605517,14.5224359 L45.5731038,14.5224359 Z M50.1623758,12.9852564 C50.5491596,13.1497871 50.8768788,13.3918787 51.145543,13.7115385 C51.3678859,13.9747876 51.5439046,14.2662377 51.6736046,14.5858974 C51.8033046,14.9055572 51.8681536,15.2698697 51.8681536,15.6788462 C51.8681536,16.1724384 51.7454037,16.6577968 51.4999001,17.1349359 C51.2543966,17.612075 50.8490902,17.949358 50.2839689,18.1467949 C50.7564474,18.3395309 51.0911147,18.6133529 51.2879807,18.9682692 C51.4848467,19.3231855 51.5832783,19.8649536 51.5832783,20.5935897 L51.5832783,21.2916667 C51.5832783,21.7664554 51.6018066,22.0884607 51.6388637,22.2576923 C51.6944494,22.5256424 51.8241475,22.7230763 52.0279617,22.85 L52.0279617,23.1108974 L49.6725292,23.1108974 C49.6076792,22.8805544 49.5613584,22.6948725 49.5335656,22.5538462 C49.4779799,22.2623917 49.4478714,21.9638904 49.4432393,21.6583333 L49.4293429,20.6923077 C49.4200786,20.0294839 49.3008028,19.5876079 49.0715117,19.3666667 C48.8422207,19.1457254 48.4125959,19.0352564 47.7826246,19.0352564 L45.5731038,19.0352564 L45.5731038,23.1108974 L43.481702,23.1108974 L43.481702,12.7173077 L48.5052351,12.7173077 C49.2232172,12.7314103 49.7755919,12.8207257 50.1623758,12.9852564 L50.1623758,12.9852564 Z M61.2829357,14.5576923 L55.8633563,14.5576923 L55.8633563,16.7647436 L60.8382523,16.7647436 L60.8382523,18.5698718 L55.8633563,18.5698718 L55.8633563,21.2423077 L61.5330701,21.2423077 L61.5330701,23.1108974 L53.7719546,23.1108974 L53.7719546,12.7173077 L61.2829357,12.7173077 L61.2829357,14.5576923 Z M65.2781384,14.5224359 L65.2781384,21.3057692 L67.2514211,21.3057692 C68.2612282,21.3057692 68.9653032,20.8004324 69.3636675,19.7897436 C69.5813781,19.23504 69.6902318,18.5745765 69.6902318,17.8083333 C69.6902318,16.7506357 69.5269513,15.9385712 69.2003853,15.3721154 C68.8738192,14.8056596 68.224171,14.5224359 67.2514211,14.5224359 L65.2781384,14.5224359 Z M69.1969112,12.9429487 C69.9148932,13.1826935 70.4962183,13.622219 70.940904,14.2615385 C71.297579,14.7786351 71.5407628,15.3380312 71.6704628,15.9397436 C71.8001627,16.541456 71.8650118,17.1149545 71.8650118,17.6602564 C71.8650118,19.0423146 71.5917195,20.2128157 71.0451267,21.1717949 C70.3039839,22.4645364 69.1598619,23.1108974 67.6127264,23.1108974 L63.200633,23.1108974 L63.200633,12.7173077 L67.6127264,12.7173077 C68.2473299,12.7267094 68.7753862,12.8019224 69.1969112,12.9429487 L69.1969112,12.9429487 Z M79.5080083,14.5224359 L79.5080083,16.8141026 L82.023249,16.8141026 C82.4725668,16.8141026 82.8373425,16.7283128 83.1175871,16.5567308 C83.3978317,16.3851487 83.5379519,16.0807714 83.5379519,15.6435897 C83.5379519,15.1593993 83.352669,14.8397444 82.9820976,14.6846154 C82.6624798,14.5764952 82.2548574,14.5224359 81.7592182,14.5224359 L79.5080083,14.5224359 Z M79.5080083,18.5346154 L79.5080083,21.3057692 L82.023249,21.3057692 C82.4725668,21.3057692 82.8222882,21.2446587 83.0724239,21.1224359 C83.5263739,20.8967937 83.7533454,20.4643194 83.7533454,19.825 C83.7533454,19.284399 83.533322,18.9130352 83.0932685,18.7108974 C82.8477649,18.5980764 82.5026755,18.5393163 82.0579898,18.5346154 L79.5080083,18.5346154 Z M85.1082403,13.824359 C85.4232259,14.2662415 85.5807164,14.7950824 85.5807164,15.4108974 C85.5807164,16.045516 85.4232259,16.5555536 85.1082403,16.9410256 C84.9322189,17.157266 84.6728228,17.3547 84.3300443,17.5333333 C84.8534763,17.7260693 85.2483605,18.0316218 85.5147087,18.45 C85.7810569,18.8683782 85.914229,19.3760654 85.914229,19.9730769 C85.914229,20.588892 85.7613706,21.1412369 85.4556492,21.6301282 C85.2610992,21.9544888 85.0179154,22.2271356 84.7260904,22.4480769 C84.3972083,22.7019243 84.0092722,22.8758542 83.5622705,22.9698718 C83.1152688,23.0638894 82.6300592,23.1108974 82.1066271,23.1108974 L77.4652438,23.1108974 L77.4652438,12.7173077 L82.4401397,12.7173077 C83.6954502,12.7361112 84.5848082,13.1051246 85.1082403,13.824359 L85.1082403,13.824359 Z M93.5502773,12.7173077 L95.9751917,12.7173077 L92.5497396,19.2044872 L92.5497396,23.1108974 L90.4097006,23.1108974 L90.4097006,19.2044872 L86.8661295,12.7173077 L89.3883183,12.7173077 L91.514461,17.2442308 L93.5502773,12.7173077 Z" id="POWERED-BY" stroke="#000000" stroke-width="1.08"></path>
                    <path d="M116.687389,11.79036 C116.387597,11.4695984 116.023569,11.207647 115.595295,11.004498 C115.167021,10.801349 114.68522,10.699776 114.149877,10.699776 C113.657361,10.699776 113.22374,10.8441166 112.849,11.132802 C112.47426,11.4214874 112.286893,11.8438172 112.286893,12.399804 C112.286893,12.8488702 112.42608,13.1963568 112.704458,13.442274 C112.982837,13.6881912 113.464638,13.9822183 114.149877,14.324364 C114.599565,14.5595892 115.027832,14.8161946 115.434693,15.094188 C115.841553,15.3721814 116.200228,15.6929382 116.510727,16.056468 C116.821225,16.4199978 117.072833,16.8369816 117.265556,17.307432 C117.45828,17.7778824 117.55464,18.3017851 117.55464,18.879156 C117.55464,19.9697455 117.356566,20.8945942 116.960412,21.65373 C116.564259,22.4128658 116.061044,23.0276496 115.450753,23.4981 C114.840462,23.9685504 114.160587,24.305345 113.411107,24.508494 C112.661628,24.711643 111.933572,24.813216 111.22692,24.813216 C110.134821,24.813216 109.096271,24.6207619 108.11124,24.235848 C107.12621,23.8509341 106.323208,23.3377232 105.70221,22.6962 L108.303963,19.681056 C108.68941,20.1087381 109.133737,20.4562247 109.63696,20.723526 C110.140182,20.9908273 110.670163,21.124476 111.22692,21.124476 C111.740849,21.124476 112.19053,20.9747895 112.575977,20.675412 C112.961424,20.3760345 113.154144,19.9483588 113.154144,19.392372 C113.154144,18.9005375 112.961424,18.4888997 112.575977,18.157446 C112.19053,17.8259923 111.655195,17.4891977 110.969957,17.147052 C110.541682,16.954595 110.145535,16.7300653 109.781502,16.473456 C109.417468,16.2168467 109.096268,15.9174737 108.817889,15.575328 C108.539511,15.2331823 108.320024,14.8429282 108.159421,14.404554 C107.998818,13.9661798 107.918518,13.4583149 107.918518,12.880944 C107.918518,11.8545069 108.116592,10.9724257 108.512745,10.234674 C108.908899,9.49692231 109.417467,8.8981763 110.038465,8.438418 C110.659462,7.9786597 111.350044,7.64186507 112.110231,7.428024 C112.870418,7.21418293 113.614533,7.107264 114.342599,7.107264 C115.32763,7.107264 116.243052,7.2569505 117.088894,7.556328 C117.934735,7.8557055 118.614611,8.25130554 119.12854,8.74314 L116.687389,11.79036 Z M130.884608,31.99824 L126.29139,31.99824 L127.961651,22.37544 L127.897411,22.37544 C127.576205,23.0383473 127.12117,23.6103636 126.532293,24.091506 C125.943416,24.5726484 125.167181,24.813216 124.203564,24.813216 C122.726018,24.813216 121.617875,24.2625835 120.879102,23.161302 C120.140329,22.0600205 119.770948,20.6326528 119.770948,18.879156 C119.770948,17.5747255 119.926195,16.2275469 120.236694,14.83758 C120.547193,13.4476131 121.002227,12.1806237 121.601811,11.036574 C122.201395,9.89252428 122.94551,8.95163769 123.834179,8.213886 C124.722848,7.47613431 125.734631,7.107264 126.869558,7.107264 C127.897416,7.107264 128.673651,7.35852349 129.198287,7.86105 C129.722923,8.36357651 130.049477,8.98905226 130.177959,9.737496 L130.2422,9.737496 L130.627645,7.62048 L135.124502,7.62048 L130.884608,31.99824 Z M129.43919,13.971528 C129.43919,13.1161637 129.31071,12.4265366 129.053745,11.902626 C128.796781,11.3787154 128.357806,11.116764 127.736809,11.116764 C127.201466,11.116764 126.730371,11.3519856 126.323511,11.822436 C125.91665,12.2928864 125.574036,12.8755945 125.295658,13.570578 C125.017279,14.2655615 124.808499,15.013994 124.66931,15.815898 C124.530121,16.617802 124.460527,17.3501967 124.460527,18.013104 C124.460527,18.8257001 124.589007,19.4885974 124.845972,20.001816 C125.102937,20.5150346 125.541911,20.77164 126.162909,20.77164 C126.698251,20.77164 127.169346,20.5417643 127.576206,20.082006 C127.983067,19.6222477 128.325681,19.0502314 128.604059,18.36594 C128.882438,17.6816486 129.091218,16.943908 129.230407,16.152696 C129.369597,15.361484 129.43919,14.6344353 129.43919,13.971528 L129.43919,13.971528 Z M149.771407,20.226348 C149.72858,20.5043414 149.675046,20.8357901 149.610805,21.220704 C149.546564,21.6056179 149.482324,22.001218 149.418083,22.407516 C149.353841,22.813814 149.294955,23.1880303 149.24142,23.530176 C149.187886,23.8723217 149.150413,24.1289271 149.128999,24.3 L144.728503,24.3 C144.771331,24.0006225 144.819511,23.6264062 144.873045,23.17734 C144.926579,22.7282738 144.985466,22.2899061 145.049707,21.862224 L144.953346,21.862224 C144.525072,22.7175883 143.941557,23.4232532 143.202784,23.97924 C142.464011,24.5352268 141.580709,24.813216 140.552851,24.813216 C139.867612,24.813216 139.28945,24.6956052 138.818349,24.46038 C138.347247,24.2251548 137.967159,23.9150899 137.678074,23.530176 C137.388989,23.1452621 137.174855,22.7122404 137.035666,22.231098 C136.896477,21.7499556 136.826883,21.2634745 136.826883,20.77164 C136.826883,20.365342 136.85365,19.9109365 136.907184,19.40841 C136.960719,18.9058835 137.041019,18.3980186 137.148088,17.8848 L138.91471,7.62048 L143.604289,7.62048 L141.805546,17.852724 C141.762719,18.0665651 141.730599,18.275057 141.709185,18.478206 C141.687771,18.681355 141.677065,18.8684631 141.677065,19.039536 C141.677065,19.4886022 141.768072,19.8735104 141.950088,20.194272 C142.132105,20.5150336 142.480072,20.675412 142.994001,20.675412 C143.636413,20.675412 144.187808,20.370693 144.648202,19.761246 C145.108597,19.151799 145.424445,18.3659448 145.595754,17.40366 L147.298136,7.62048 L151.987715,7.62048 L149.771407,20.226348 Z M165.863731,12.079044 C165.863731,12.9344083 165.76737,13.8752949 165.574647,14.901732 L164.514673,21.028248 C164.471846,21.2634732 164.429019,21.5414624 164.386192,21.862224 C164.343364,22.1829856 164.300538,22.4983964 164.25771,22.808466 C164.214883,23.1185356 164.177409,23.4125626 164.145289,23.690556 C164.113168,23.9685494 164.097108,24.1716954 164.097108,24.3 L160.178419,24.3 C160.199832,24.0433907 160.237306,23.7012501 160.29084,23.273568 C160.344374,22.8458859 160.403261,22.4930534 160.467502,22.21506 L160.371141,22.21506 C160.007108,22.9635037 159.5146,23.5675957 158.893602,24.027354 C158.272605,24.4871123 157.458896,24.716988 156.452452,24.716988 C156.002764,24.716988 155.558436,24.6314529 155.119455,24.46038 C154.680474,24.2893071 154.284326,24.0327017 153.931,23.690556 C153.577673,23.3484103 153.293946,22.9153886 153.079809,22.391478 C152.865672,21.8675674 152.758605,21.2527835 152.758605,20.547108 C152.758605,19.3282139 152.972739,18.2964462 153.401013,17.451774 C153.829287,16.6071018 154.402095,15.9228206 155.119455,15.39891 C155.836814,14.8749994 156.671936,14.4954372 157.624846,14.260212 C158.577757,14.0249868 159.578833,13.907376 160.628104,13.907376 L161.431115,13.907376 C161.538183,13.4155415 161.591717,13.0520172 161.591717,12.816792 C161.591717,11.6620502 161.045675,11.084688 159.953576,11.084688 C159.353992,11.084688 158.781184,11.2183367 158.235134,11.485638 C157.689084,11.7529393 157.212637,12.0683502 156.805776,12.43188 L155.007033,9.448812 C155.756513,8.74313647 156.634462,8.17646614 157.640907,7.748784 C158.647351,7.32110186 159.664487,7.107264 160.692345,7.107264 C162.512511,7.107264 163.829434,7.55097756 164.643155,8.438418 C165.456876,9.32585844 165.863731,10.5393883 165.863731,12.079044 L165.863731,12.079044 Z M160.178419,16.954596 C159.750144,16.954596 159.332583,17.0027095 158.925723,17.098938 C158.518862,17.1951665 158.160188,17.3555449 157.849689,17.580078 C157.53919,17.8046111 157.292936,18.0879463 157.11092,18.430092 C156.928903,18.7722377 156.837896,19.1785296 156.837896,19.64898 C156.837896,20.1621986 156.961023,20.5471067 157.207281,20.803716 C157.453539,21.0603253 157.75868,21.188628 158.122713,21.188628 C158.508159,21.188628 158.856127,21.087055 159.166626,20.883906 C159.477125,20.680757 159.744792,20.4134597 159.969636,20.082006 C160.19448,19.7505523 160.381847,19.381682 160.531743,18.975384 C160.681639,18.569086 160.799413,18.162794 160.885068,17.756496 L161.04567,16.954596 L160.178419,16.954596 Z M180.125191,24.3 L175.660454,24.3 L176.013779,22.150908 L175.981658,22.150908 C175.596212,22.8993517 175.103704,23.5301734 174.50412,24.043392 C173.904536,24.5566106 173.101534,24.813216 172.095089,24.813216 C171.367023,24.813216 170.729975,24.6635295 170.183925,24.364152 C169.637876,24.0647745 169.188194,23.6531366 168.834868,23.129226 C168.481542,22.6053154 168.213875,21.9744937 168.031858,21.236742 C167.849841,20.4989903 167.758835,19.6917524 167.758835,18.815004 C167.758835,17.5105735 167.914082,16.1687409 168.22458,14.789466 C168.535079,13.4101911 168.995467,12.1485477 169.605758,11.004498 C170.216049,9.86044828 170.960164,8.92490764 171.838126,8.197848 C172.716088,7.47078836 173.733224,7.107264 174.889565,7.107264 C175.853182,7.107264 176.581237,7.32644781 177.073752,7.764822 C177.566268,8.20319619 177.876762,8.77521247 178.005244,9.480888 L178.101605,9.480888 L179.771866,0.050544 L184.365084,0.050544 L180.125191,24.3 Z M177.427077,14.003604 C177.427077,13.1482397 177.293243,12.4532667 177.025572,11.918664 C176.7579,11.3840613 176.324279,11.116764 175.724695,11.116764 C175.167939,11.116764 174.686137,11.3519856 174.279277,11.822436 C173.872416,12.2928864 173.529802,12.8755945 173.251424,13.570578 C172.973046,14.2655615 172.764265,15.013994 172.625076,15.815898 C172.485887,16.617802 172.416293,17.3501967 172.416293,18.013104 C172.416293,18.8257001 172.550127,19.4885974 172.817798,20.001816 C173.08547,20.5150346 173.529798,20.77164 174.150795,20.77164 C174.664724,20.77164 175.125112,20.5417643 175.531973,20.082006 C175.938833,19.6222477 176.281448,19.0502314 176.559826,18.36594 C176.838204,17.6816486 177.052338,16.943908 177.202234,16.152696 C177.35213,15.361484 177.427077,14.6451272 177.427077,14.003604 L177.427077,14.003604 Z M197.566571,20.226348 C197.523744,20.5043414 197.47021,20.8357901 197.405969,21.220704 C197.341728,21.6056179 197.277488,22.001218 197.213247,22.407516 C197.149006,22.813814 197.090119,23.1880303 197.036585,23.530176 C196.98305,23.8723217 196.945577,24.1289271 196.924163,24.3 L192.523668,24.3 C192.566495,24.0006225 192.614675,23.6264062 192.668209,23.17734 C192.721744,22.7282738 192.780631,22.2899061 192.844872,21.862224 L192.74851,21.862224 C192.320236,22.7175883 191.736721,23.4232532 190.997948,23.97924 C190.259175,24.5352268 189.375873,24.813216 188.348015,24.813216 C187.662776,24.813216 187.084615,24.6956052 186.613513,24.46038 C186.142411,24.2251548 185.762324,23.9150899 185.473238,23.530176 C185.184153,23.1452621 184.970019,22.7122404 184.83083,22.231098 C184.691641,21.7499556 184.622048,21.2634745 184.622048,20.77164 C184.622048,20.365342 184.648814,19.9109365 184.702349,19.40841 C184.755883,18.9058835 184.836183,18.3980186 184.943252,17.8848 L186.709874,7.62048 L191.399453,7.62048 L189.600711,17.852724 C189.557883,18.0665651 189.525763,18.275057 189.504349,18.478206 C189.482936,18.681355 189.472229,18.8684631 189.472229,19.039536 C189.472229,19.4886022 189.563236,19.8735104 189.745252,20.194272 C189.927269,20.5150336 190.275237,20.675412 190.789166,20.675412 C191.431577,20.675412 191.982972,20.370693 192.443367,19.761246 C192.903761,19.151799 193.219609,18.3659448 193.390919,17.40366 L195.0933,7.62048 L199.782879,7.62048 L197.566571,20.226348 Z M216.196407,13.137552 C216.196407,14.4419825 216.04116,15.7838151 215.730661,17.16309 C215.420162,18.5423649 214.970481,19.7986623 214.381604,20.93202 C213.792727,22.0653777 213.059318,22.9955724 212.181356,23.722632 C211.303394,24.4496916 210.286258,24.813216 209.129918,24.813216 C208.166301,24.813216 207.411479,24.5779944 206.865429,24.107544 C206.319379,23.6370936 205.982118,23.0597314 205.853636,22.37544 L205.789395,22.37544 L204.119134,31.99824 L199.558037,31.99824 L203.76581,7.62048 L208.198426,7.62048 L207.845101,9.737496 L207.909342,9.737496 C208.337616,8.98905226 208.856891,8.36357651 209.467182,7.86105 C210.077473,7.35852349 210.832295,7.107264 211.73167,7.107264 C212.48115,7.107264 213.134259,7.2569505 213.691015,7.556328 C214.247772,7.8557055 214.713513,8.27268933 215.088253,8.807292 C215.462993,9.34189467 215.741367,9.97806231 215.923383,10.715814 C216.1054,11.4535657 216.196407,12.2608036 216.196407,13.137552 L216.196407,13.137552 Z M211.538948,13.8753 C211.538948,13.0627039 211.405114,12.3998066 211.137443,11.886588 C210.869772,11.3733694 210.425444,11.116764 209.804446,11.116764 C209.290517,11.116764 208.830129,11.3466397 208.423269,11.806398 C208.016408,12.2661563 207.673794,12.8381726 207.395416,13.522464 C207.117037,14.2067554 206.902903,14.944496 206.753008,15.735708 C206.603112,16.52692 206.528165,17.2539687 206.528165,17.916876 C206.528165,18.7722403 206.661998,19.4618674 206.92967,19.985778 C207.197341,20.5096886 207.630962,20.77164 208.230546,20.77164 C208.765889,20.77164 209.242337,20.5364184 209.659904,20.065968 C210.077472,19.5955176 210.425439,19.0128095 210.703817,18.317826 C210.982196,17.6228425 211.190976,16.87441 211.330165,16.072506 C211.469354,15.270602 211.538948,14.5382073 211.538948,13.8753 L211.538948,13.8753 Z" id="squadup"></path>
                </g>
            </g>
        </g>
    </g>
</svg>